<?xml version="1.0" encoding="UTF-8"?><svg id="Layer_2" xmlns="http://www.w3.org/2000/svg" viewBox="0 0 321 205.96"><defs><style>.cls-1{fill:#d1d1d1;}.cls-1,.cls-2,.cls-3,.cls-4,.cls-5,.cls-6{fill-rule:evenodd;stroke-width:0px;}.cls-2{fill:#e9a727;}.cls-3{fill:#fa463e;}.cls-4{fill:#e6e6e6;}.cls-5{fill:#bfbfbf;}.cls-6{fill:#fff;}</style></defs><g id="Layer_1-2"><path class="cls-3" d="M140.23,188.74H0V26.26h321v162.49h-140.23c-4.36,3.59-11.81,5.96-20.27,5.96s-15.92-2.37-20.27-5.96Z"/><path class="cls-5" d="M160.1,185.19l18.9-14.36,116.12,2.27,2.56,10.95-119.18,1.29c-1.43.97-3.16,1.69-4.74,2.3-6.27,2.42-14.24,2.58-20.92,1.85-2.88-.31-5.55-1.19-8.12-2.38-.9-.42-1.8-.87-2.63-1.39-.19-.12-.37-.24-.55-.36l-120.59-1.31,2.56-10.95,116.12-2.27,18.98,14.42c.5,0,1-.02,1.49-.06Z"/><path class="cls-1" d="M159.31,95.21c10.19-3.22,79.38-23.26,145.53,3.89l-3.29,84.17s-70.43-19.47-141.93,1.98c0,.12-.01.18-.02.18l-.29-.09-.29.09s-.01-.06-.02-.18c-71.5-21.45-141.93-1.98-141.93-1.98l-3.29-84.17c66.14-27.15,135.34-7.11,145.53-3.89Z"/><path class="cls-4" d="M159.31,60.98c10.96-4.48,82.48-31.13,150.86,5.28l-3.42,113.29s-72.92-26.15-147,2.57c0,.22-.02.34-.02.33l-.42-.16-.42.16s-.02-.11-.02-.33c-74.09-28.72-147-2.57-147-2.57l-3.42-113.29c68.38-36.41,139.89-9.76,150.86-5.28Z"/><path class="cls-6" d="M159.31,18.51c6.69-3.71,82-43.47,153.88,6.44l-.66,149.92s-77.27-35.02-152.67,3.65c-.11.06-1.01.06-1.12,0-75.39-38.67-151.83-3.72-151.83-3.72L5.43,24.95c71.89-49.91,147.2-10.15,153.88-6.44Z"/><polygon class="cls-2" points="168.38 14.06 149.51 14.06 149.51 205.96 158.8 195.77 168.38 205.96 168.38 14.06"/></g></svg>