<?xml version="1.0" encoding="UTF-8"?><svg id="Layer_2" xmlns="http://www.w3.org/2000/svg" viewBox="0 0 813.25 889.95"><defs><style>.cls-1{fill:#ca4e2f;}.cls-1,.cls-2,.cls-3,.cls-4,.cls-5,.cls-6,.cls-7,.cls-8{stroke-width:0px;}.cls-2{fill:#ebebeb;}.cls-3{fill:#292929;}.cls-4{fill:#9e3e23;}.cls-5,.cls-6{fill:#eb5837;}.cls-6{opacity:.2;}.cls-6,.cls-8{isolation:isolate;}.cls-7,.cls-8{fill:#fff;}.cls-8{opacity:.3;}</style></defs><g id="Capa_1"><path class="cls-2" d="M783.53,12.43h-8.16c-5.15-7.42-14.72-12.43-25.69-12.43H58.8c-16.41,0-29.71,11.16-29.71,24.9v22.12h-15.89c-7.29,0-13.2,5.92-13.2,13.23s5.91,13.25,13.2,13.25h15.89v50.45h-15.89c-7.29,0-13.2,5.93-13.2,13.24s5.91,13.25,13.2,13.25h15.89v50.46h-15.89c-7.29,0-13.2,5.93-13.2,13.23s5.91,13.25,13.2,13.25h15.89v50.46h-15.89c-7.29,0-13.2,5.93-13.2,13.23s5.91,13.25,13.2,13.25h15.89v50.46h-15.89c-7.29,0-13.2,5.93-13.2,13.24s5.91,13.24,13.2,13.24h15.89v50.45h-15.89c-7.29,0-13.2,5.94-13.2,13.24s5.91,13.26,13.2,13.26h15.89v50.44h-15.89c-7.29,0-13.2,5.94-13.2,13.25s5.91,13.25,13.2,13.25h15.89v50.45h-15.89c-7.29,0-13.2,5.93-13.2,13.24s5.91,13.24,13.2,13.24h15.89v50.46h-15.89c-7.29,0-13.2,5.92-13.2,13.24s5.91,13.24,13.2,13.24h15.89v50.46h-15.89c-7.29,0-13.2,5.93-13.2,13.24s5.91,13.24,13.2,13.24h15.89v50.46h-15.89c-7.29,0-13.2,5.93-13.2,13.24s5.91,13.24,13.2,13.24h15.89v22.11c0,13.75,13.3,24.9,29.71,24.9h724.73c16.4,0,29.72-10.99,29.72-24.55V36.97c0-13.55-13.32-24.54-29.72-24.54Z"/><path class="cls-1" d="M774.56,829.7c0,12.9-12.62,23.36-28.14,23.36H92.06c-15.53,0-28.13-10.46-28.13-23.36V41.3c0-12.89,12.61-23.35,28.13-23.35h654.36c15.53,0,28.14,10.46,28.14,23.35v788.39Z"/><rect class="cls-7" x="263.83" y="39.29" width="489.35" height="792.44"/><path class="cls-5" d="M742.51,829.36c0,13.08-12.61,23.69-28.14,23.69H60.01c-15.54,0-28.13-10.61-28.13-23.69V29.82c0-13.07,12.59-23.69,28.13-23.69h654.35c15.54,0,28.14,10.62,28.14,23.69v799.55Z"/><path class="cls-6" d="M622.99,820.45c-89.3-.41-180.69-17.04-268.76-30.93-58.63-9.25-125.81-19.28-173.44-58.07-25.2-20.52-45.34-53.91-53.11-85.72-9.65-39.42-10.68-82.15-9.83-122.6.48-23.41,1.57-46.96.99-70.39-2.73-110.64-4.41-221.36-1.08-331.99,1.15-38.2,2.08-76.4,1.96-114.64h-59.71c-15.54,0-28.13,10.62-28.13,23.69v799.55c0,13.08,12.59,23.69,28.13,23.69h654.35c15.54,0,28.14-10.61,28.14-23.69v-19.73c-39.27,7.45-79.4,11-119.51,10.82Z"/><ellipse class="cls-4" cx="72.32" cy="63.46" rx="18.76" ry="18.91"/><path class="cls-3" d="M81.71,63.46c0,6.97-5.6,12.61-12.51,12.61H16.82c-6.91,0-12.51-5.64-12.51-12.61h0c0-6.96,5.6-12.59,12.51-12.59h52.38c6.91,0,12.51,5.63,12.51,12.59h0Z"/><path class="cls-4" d="M91.09,136.68c0,10.45-8.4,18.92-18.76,18.92s-18.76-8.47-18.76-18.92,8.39-18.9,18.76-18.9,18.76,8.46,18.76,18.9Z"/><path class="cls-3" d="M81.71,136.68c0,6.97-5.6,12.61-12.51,12.61H16.82c-6.91,0-12.51-5.64-12.51-12.61h0c0-6.96,5.6-12.6,12.51-12.6h52.38c6.91,0,12.51,5.64,12.51,12.6h0Z"/><path class="cls-4" d="M91.09,209.91c0,10.44-8.4,18.92-18.76,18.92s-18.76-8.48-18.76-18.92,8.39-18.9,18.76-18.9,18.76,8.46,18.76,18.9Z"/><path class="cls-3" d="M81.71,209.91c0,6.97-5.6,12.61-12.51,12.61H16.82c-6.91,0-12.51-5.64-12.51-12.61h0c0-6.95,5.6-12.59,12.51-12.59h52.38c6.91,0,12.51,5.64,12.51,12.59h0Z"/><path class="cls-4" d="M91.09,283.13c0,10.45-8.4,18.92-18.76,18.92s-18.76-8.47-18.76-18.92,8.39-18.9,18.76-18.9c10.36,0,18.76,8.47,18.76,18.9Z"/><path class="cls-3" d="M81.71,283.13c0,6.97-5.6,12.61-12.51,12.61H16.82c-6.91,0-12.51-5.64-12.51-12.61h0c0-6.95,5.6-12.59,12.51-12.59h52.38c6.91,0,12.51,5.64,12.51,12.59h0Z"/><path class="cls-4" d="M91.09,356.37c0,10.43-8.4,18.9-18.76,18.9s-18.76-8.47-18.76-18.9,8.39-18.91,18.76-18.91,18.76,8.46,18.76,18.91Z"/><path class="cls-3" d="M81.71,356.37c0,6.96-5.6,12.6-12.51,12.6H16.82c-6.91,0-12.51-5.64-12.51-12.6h0c0-6.96,5.6-12.6,12.51-12.6h52.38c6.91,0,12.51,5.64,12.51,12.6h0Z"/><path class="cls-4" d="M91.09,429.6c0,10.44-8.4,18.9-18.76,18.9s-18.76-8.46-18.76-18.9,8.39-18.91,18.76-18.91,18.76,8.47,18.76,18.91Z"/><path class="cls-3" d="M81.71,429.59c0,6.97-5.6,12.62-12.51,12.62H16.82c-6.91,0-12.51-5.65-12.51-12.62h0c0-6.95,5.6-12.6,12.51-12.6h52.38c6.91,0,12.51,5.65,12.51,12.6h0Z"/><path class="cls-4" d="M91.09,502.82c0,10.44-8.4,18.91-18.76,18.91s-18.76-8.47-18.76-18.91,8.39-18.91,18.76-18.91c10.36,0,18.76,8.47,18.76,18.91Z"/><path class="cls-3" d="M81.71,502.82c0,6.96-5.6,12.61-12.51,12.61H16.82c-6.91,0-12.51-5.65-12.51-12.61h0c0-6.96,5.6-12.61,12.51-12.61h52.38c6.91,0,12.51,5.65,12.51,12.61h0Z"/><path class="cls-4" d="M91.09,576.05c0,10.44-8.4,18.9-18.76,18.9s-18.76-8.46-18.76-18.9,8.39-18.9,18.76-18.9,18.76,8.46,18.76,18.9Z"/><path class="cls-3" d="M81.71,576.05c0,6.96-5.6,12.6-12.51,12.6H16.82c-6.91,0-12.51-5.64-12.51-12.6h0c0-6.96,5.6-12.6,12.51-12.6h52.38c6.91,0,12.51,5.64,12.51,12.6h0Z"/><path class="cls-4" d="M91.09,649.27c0,10.44-8.4,18.91-18.76,18.91s-18.76-8.47-18.76-18.91,8.39-18.91,18.76-18.91c10.36,0,18.76,8.47,18.76,18.91Z"/><path class="cls-3" d="M81.71,649.27c0,6.96-5.6,12.6-12.51,12.6H16.82c-6.91,0-12.51-5.64-12.51-12.6h0c0-6.97,5.6-12.6,12.51-12.6h52.38c6.91,0,12.51,5.63,12.51,12.6h0Z"/><path class="cls-4" d="M91.09,722.51c0,10.43-8.4,18.9-18.76,18.9s-18.76-8.47-18.76-18.9,8.39-18.92,18.76-18.92c10.36,0,18.76,8.47,18.76,18.92Z"/><path class="cls-3" d="M81.71,722.5c0,6.96-5.6,12.6-12.51,12.6H16.82c-6.91,0-12.51-5.64-12.51-12.6h0c0-6.96,5.6-12.6,12.51-12.6h52.38c6.91,0,12.51,5.64,12.51,12.6h0Z"/><path class="cls-4" d="M65.19,778.25c9.57-4,20.55.59,24.52,10.23s-.58,20.71-10.15,24.7-20.55-.59-24.52-10.23.58-20.71,10.15-24.7Z"/><path class="cls-3" d="M81.71,795.72c0,6.96-5.6,12.6-12.51,12.6H16.82c-6.91,0-12.51-5.64-12.51-12.6h0c0-6.96,5.6-12.6,12.51-12.6h52.38c6.91,0,12.51,5.64,12.51,12.6h0Z"/><path class="cls-8" d="M164.33,174.48c-.03,2.01-.06,4-.09,5.96-1.66,97.78,1.73,195.83.66,293.72-.82,74.83.27,147.67,55.08,205.06,52.36,54.82,118.32,73.72,190.17,87.04,49.72,9.2,99.89,15.92,149.55,25.49,38.24,7.36,112.28,25.88,127.59-27.33,13.33-46.4,4.42-97.67,1.42-145.19-3.37-53.23-6.81-106.52-5.99-159.89,1.21-79.59,3.28-159.28-1.05-238.81-1.91-35.13,2.96-85.43-20.88-114.48-41.32-50.29-114.77-45.88-172.94-42.67-61.17,3.37-122.49,4.7-183.7,1.56-39.24-2.03-99.28-15.79-124.08,25.42-14.47,24.04-15.3,56.29-15.75,84.11Z"/><path class="cls-7" d="M481.93,35.31s5.42-.45,14.91-1c9.49-.45,23.05-1.38,39.32-1.97,16.27-.67,35.25-1.25,55.59-1.63,10.17-.15,20.67-.45,31.36-.48,10.67-.08,21.52-.16,32.37-.23,5.42.02,10.85.04,16.25.06,5.96-.1,12.1,1.02,17.73,3.06,5.7,2.03,11.04,5.3,15.41,9.56,4.48,4.21,7.41,9.59,9.72,14.87,4.18,10.76,3.79,22.15,3.46,31.15-.29,9.39-.56,18.27-.82,26.47-.53,16.39-1.41,30.06-1.82,39.62-.51,9.56-.94,15.03-.94,15.03-.06.65-.62,1.14-1.26,1.09-.59-.05-1.04-.51-1.08-1.09,0,0-.43-5.47-.94-15.03-.41-9.56-1.29-23.23-1.82-39.62-.25-8.2-.53-17.08-.82-26.47-.06-2.35-.12-4.73-.18-7.14-.11-2.34-.36-4.52-.52-6.82-.54-4.51-1.6-8.92-3.2-13.1-1.95-3.96-4.15-7.88-7.5-10.79-3.26-2.95-7.19-5.26-11.55-6.83-4.41-1.53-9.03-2.39-13.88-2.26-5.4.02-10.83.04-16.25.06-10.85-.08-21.7-.16-32.37-.23-10.69-.03-21.19-.34-31.36-.48-20.34-.39-39.32-.96-55.59-1.63-16.27-.59-29.83-1.52-39.32-1.97-9.49-.55-14.91-.99-14.91-.99-.33-.03-.57-.32-.54-.64.03-.29.26-.52.54-.54Z"/></g></svg>