<?xml version="1.0" encoding="UTF-8"?><svg id="Layer_2" xmlns="http://www.w3.org/2000/svg" viewBox="0 0 355.01 342.02"><defs><style>.cls-1{fill:#ed9e00;}.cls-1,.cls-2,.cls-3,.cls-4{stroke-width:0px;}.cls-5{fill:none;stroke:#fff;stroke-miterlimit:10;}.cls-2{fill:#f7f8f8;}.cls-3{fill:#f8bf39;}.cls-4{fill:#fff;}</style></defs><g id="Capa_1"><path class="cls-2" d="M160.04,155.86l30.95-.04c1.23,0,2.23-1.14,2.23-2.56,0-1.41-1.01-2.55-2.23-2.55l-30.95.05c-1.23,0-2.22,1.15-2.22,2.55,0,1.41,1,2.55,2.22,2.55Z"/><path class="cls-2" d="M160.02,148.73l30.95-.05c1.23,0,2.23-1.16,2.23-2.56,0-1.41-1-2.56-2.23-2.56h-3.31s-3.34-6.77-3.34-6.77c0,0-1.61-2.18-2.44-2.41-.82-.24-10.35-1.29-13.3.02,0,0-1.44.41-2.56,2.6-.87,1.66-2.69,5.08-3.51,6.61h-2.49c-1.23,0-2.22,1.16-2.22,2.57,0,1.4,1,2.55,2.23,2.55Z"/><path class="cls-2" d="M160.05,163l30.95-.05c1.23,0,2.23-1.15,2.23-2.56,0-1.41-1-2.56-2.23-2.55l-30.95.05c-1.23,0-2.22,1.15-2.22,2.56,0,1.41,1,2.55,2.22,2.55Z"/><path class="cls-1" d="M118.27,187.51c2.61,1.3,5.22,2.6,7.82,3.9,1.52.76,3.64.46,4.47-1.21,0-.01.01-.03.02-.04.76-1.52.46-3.64-1.2-4.47-2.61-1.3-5.22-2.6-7.82-3.9-1.47-.85-3.68-.4-4.47,1.2-.32.56-.46,1.23-.41,1.88.04,1.08.54,2.11,1.59,2.64Z"/><path class="cls-1" d="M220.6,190.15c.84,1.67,2.97,1.92,4.48,1.16,2.61-1.31,5.21-2.61,7.81-3.92,1.05-.53,1.53-1.56,1.57-2.63.04-.66-.1-1.34-.43-1.89-.8-1.6-3.03-2.01-4.48-1.16-2.61,1.31-5.21,2.61-7.81,3.92-1.67.84-1.92,2.98-1.16,4.48,0,.02.02.03.02.04Z"/><path class="cls-1" d="M115.77,228.77c2.85-.6,5.7-1.2,8.55-1.8.8-.17,1.42-.65,1.82-1.28.21-.3.35-.64.43-.99.15-.57.18-1.17.05-1.74,0-.03-.02-.07-.02-.11-.35-1.6-1.51-2.32-2.76-2.36-.38-.06-.81-.04-1.26.05-2.84.64-5.69,1.27-8.53,1.91-4.13.92-2.41,7.18,1.7,6.32Z"/><path class="cls-1" d="M224.59,223.29c-.29,1.5.36,3.11,2.3,3.52,2.84.64,5.69,1.27,8.53,1.91,1.67.38,3.63-.5,4.02-2.3,0-.04.02-.07.02-.11.36-1.66-.48-3.64-2.3-4.02-2.85-.6-5.7-1.2-8.55-1.8-2.2-.49-3.71,1.08-4.02,2.8Z"/><path class="cls-1" d="M134.38,262.98s.05.04.07.06c1.27,1.02,3.44,1.46,4.63-.03,1.81-2.28,3.63-4.56,5.44-6.84,1.11-1.39,1.34-3.28-.03-4.63-.07-.07-.15-.14-.24-.21-1.23-.98-3.34-1.07-4.4.23-1.83,2.27-3.66,4.53-5.49,6.8-1.03,1.27-1.46,3.43.03,4.63Z"/><path class="cls-1" d="M206.78,256.12c1.81,2.28,3.63,4.56,5.44,6.84,1.2,1.51,3.38.98,4.63-.03.02-.02.04-.04.07-.05,1.5-1.2.99-3.38-.03-4.63-1.84-2.26-3.67-4.52-5.51-6.79-.6-.75-1.57-1.02-2.51-.92-.8.08-1.59.42-2.12.96-.54.55-.82,1.18-.89,1.82-.11.97.25,1.98.93,2.81Z"/><path class="cls-1" d="M175.6,277.62s.03,0,.05,0c1.77,0,3.29-1.46,3.29-3.25,0-2.91,0-5.83-.01-8.74,0-1.77-1.47-3.29-3.26-3.29-.02,0-.03,0-.05,0-.93,0-1.66.32-2.18.81-.66.52-1.11,1.34-1.11,2.44,0,2.92,0,5.83.01,8.74,0,1.78,1.46,3.3,3.25,3.3Z"/><path class="cls-3" d="M164.96,207.94c-.31.63-.37,1.12-.17,1.44.19.32.4.48.6.48.46,0,1.09-.63,1.39-1.23.45-.88.4-1.98.23-2.92-.98.71-1.67,1.46-2.05,2.24Z"/><path class="cls-3" d="M178.26,209.18c-.21.46-.28,1.33-.05,1.69.04.07.09.11.21.11.09,0,.24-.02.47-.12.57-.24,1.06-.75,1.36-1.42.55-1.22.61-2.39.2-3.36-.08.09-.16.19-.23.28-.73.9-1.5,1.82-1.97,2.82Z"/><path class="cls-3" d="M188.11,195.43c-4.2-9.02-7.84-19.07-11.1-30.71h-4.69c-3.03,10.94-6.38,20.46-10.25,29.07,3.08,1.43,5.48,4.1,6.82,7.6,2.12-.87,4.29-1.18,6.61-.96,1.94.19,3.57.65,4.87,1.37,1.24-1.48,4.2-4.67,7.75-6.38Z"/><path class="cls-3" d="M195.14,201.06c.06,0,.14.01.2.01.39,0,.84-.15.93-.49.17-.67-.16-1.29-.47-1.68-.76-.97-2.18-1.71-3.3-1.7-.09,0-.18,0-.27.02.25.51.51,1.02.77,1.53.52,1.07,1.18,2.17,2.14,2.32Z"/><path class="cls-3" d="M155.23,200.18h.01c.1,0,.42-.13,1.14-1.31l.06-.1c.45-.9.9-1.81,1.37-2.79-1.02.11-1.87.46-2.39,1.02-.45.48-.65,1.12-.6,1.9.06.88.29,1.21.41,1.27Z"/><path class="cls-3" d="M175.66,254.82c23.02-.04,41.66-18.73,41.63-41.75-.02-16.79-9.97-31.23-24.28-37.82v-8.1c-.01-1.36-1.12-2.46-2.48-2.46h-10.45c3.2,11.32,6.76,21.07,10.84,29.79,2.35-.45,4.43.11,6.15,1.65,1.19,1.07,2.33,2.92,2.19,4.65-.09,1.07-.65,1.96-1.63,2.58-.7.44-1.44.67-2.2.67-2.31,0-4.14-2.08-5.01-3.87-.33-.66-.66-1.32-.99-1.99-2.39,1.15-4.84,3.13-6.84,5.56.57.8.94,1.72,1.08,2.76.25,1.77-.63,4.39-2,5.96-1.47,1.69-3.35,1.99-5.04.77-.93-.68-1.48-1.52-1.61-2.51-.3-2.27,1.68-4.68,3.11-6.44.07-.08.13-.15.19-.23-.4-.18-.85-.32-1.32-.41-2.51-.52-4.75-.46-6.4.2-.3.12-.6.24-.9.38.12.62.22,1.22.27,1.81.25,2.59-.46,4.48-2.25,5.94-.69.56-1.58.88-2.46.88-.86,0-1.61-.3-2.16-.88-.98-1.02-1.41-2.16-1.3-3.43.23-2.51,2.53-4.43,3.51-5.13.29-.21.58-.41.89-.6-.76-2.1-2.35-5.21-5.34-6.39-.61,1.29-1.23,2.56-1.86,3.8-.04.09-.1.17-.15.25-.54.83-1.96,2.69-3.72,2.7-.64,0-1.24-.24-1.79-.72-1.68-1.48-1.74-3.98-1.07-5.81.84-2.28,3.08-3.65,5.99-3.65.3,0,.61.01.92.04,3.77-8.35,7.07-17.62,10.06-28.29h-8.72c-1.37.02-2.46,1.12-2.46,2.49v8.1c-14.27,6.63-24.18,21.1-24.16,37.89.04,23.03,18.73,41.67,41.75,41.63Z"/><path class="cls-2" d="M297.25,200.76l30.95-.04c1.23,0,2.23-1.14,2.23-2.56,0-1.41-1.01-2.55-2.23-2.55l-30.95.05c-1.23,0-2.22,1.15-2.22,2.55,0,1.41,1,2.55,2.23,2.55Z"/><path class="cls-2" d="M297.24,193.62l30.95-.05c1.23,0,2.23-1.16,2.23-2.56,0-1.41-1-2.56-2.23-2.56h-3.31s-3.34-6.77-3.34-6.77c0,0-1.61-2.18-2.44-2.41-.82-.24-10.35-1.29-13.3.02,0,0-1.44.41-2.56,2.6-.87,1.66-2.69,5.08-3.51,6.61h-2.49c-1.23,0-2.22,1.16-2.22,2.57,0,1.4,1,2.55,2.23,2.55Z"/><path class="cls-2" d="M297.26,207.89l30.95-.05c1.23,0,2.23-1.15,2.23-2.56,0-1.41-1-2.56-2.23-2.55l-30.95.05c-1.23,0-2.22,1.15-2.22,2.56,0,1.41,1,2.55,2.23,2.55Z"/><path class="cls-5" d="M302.18,252.84c-.31.63-.37,1.12-.17,1.44.19.32.4.48.6.48.46,0,1.09-.63,1.39-1.23.45-.88.4-1.98.23-2.92-.98.71-1.67,1.46-2.05,2.24Z"/><path class="cls-5" d="M315.48,254.07c-.21.46-.28,1.33-.05,1.69.04.07.09.11.21.11.09,0,.24-.02.47-.12.57-.24,1.06-.75,1.36-1.42.55-1.22.61-2.39.2-3.36-.08.09-.16.19-.23.28-.73.9-1.49,1.82-1.97,2.82Z"/><path class="cls-5" d="M325.33,240.32c-4.2-9.02-7.84-19.07-11.1-30.71h-4.69c-3.03,10.94-6.39,20.46-10.25,29.07,3.08,1.43,5.48,4.1,6.82,7.6,2.12-.87,4.29-1.18,6.61-.96,1.94.19,3.57.65,4.87,1.37,1.24-1.48,4.2-4.67,7.75-6.38Z"/><path class="cls-5" d="M332.36,245.95c.06,0,.14.01.2.01.39,0,.84-.15.93-.49.17-.67-.16-1.29-.47-1.68-.76-.97-2.18-1.71-3.3-1.7-.09,0-.18,0-.27.02.25.51.51,1.02.77,1.53.52,1.07,1.18,2.17,2.14,2.32Z"/><path class="cls-5" d="M292.45,245.07h.01c.1,0,.42-.13,1.14-1.31l.06-.1c.45-.9.9-1.81,1.37-2.79-1.02.11-1.87.46-2.39,1.02-.45.48-.65,1.12-.6,1.9.06.88.29,1.21.41,1.27Z"/><path class="cls-5" d="M312.88,299.72c23.02-.04,41.66-18.73,41.63-41.75-.02-16.79-9.97-31.23-24.28-37.82v-8.1c-.02-1.36-1.12-2.46-2.48-2.46h-10.45c3.2,11.32,6.76,21.07,10.84,29.79,2.35-.45,4.43.11,6.15,1.65,1.19,1.07,2.33,2.92,2.19,4.65-.09,1.07-.65,1.96-1.63,2.58-.7.44-1.44.67-2.2.67-2.31,0-4.14-2.08-5.01-3.87-.33-.66-.67-1.32-.99-1.99-2.39,1.15-4.84,3.13-6.84,5.56.57.8.94,1.72,1.08,2.76.25,1.77-.63,4.39-2,5.96-1.47,1.69-3.35,1.99-5.04.77-.93-.68-1.48-1.52-1.61-2.51-.3-2.27,1.67-4.68,3.11-6.44.07-.08.13-.15.19-.23-.4-.18-.85-.32-1.32-.41-2.51-.52-4.75-.46-6.4.2-.3.12-.61.24-.9.38.12.62.22,1.22.27,1.81.25,2.59-.46,4.48-2.25,5.94-.69.56-1.58.89-2.46.88-.86,0-1.61-.3-2.16-.88-.98-1.02-1.41-2.16-1.3-3.43.23-2.51,2.53-4.43,3.51-5.13.29-.21.58-.41.89-.6-.76-2.1-2.35-5.21-5.33-6.39-.61,1.29-1.23,2.56-1.86,3.8-.04.09-.1.17-.15.25-.55.83-1.96,2.69-3.72,2.7-.64,0-1.24-.24-1.79-.72-1.68-1.48-1.74-3.98-1.07-5.81.84-2.28,3.08-3.65,5.99-3.65.3,0,.61.01.92.04,3.77-8.35,7.07-17.62,10.06-28.29h-8.72c-1.36.02-2.46,1.12-2.46,2.49v8.1c-14.27,6.63-24.18,21.1-24.15,37.89.03,23.03,18.73,41.66,41.75,41.63Z"/><path class="cls-2" d="M26.62,242.55l30.95-.04c1.23,0,2.23-1.14,2.23-2.56,0-1.41-1-2.55-2.23-2.55l-30.95.05c-1.23,0-2.22,1.15-2.22,2.55,0,1.41,1,2.55,2.22,2.55Z"/><path class="cls-2" d="M26.61,235.42l30.95-.05c1.23,0,2.23-1.16,2.23-2.56,0-1.41-1-2.56-2.23-2.56h-3.31s-3.34-6.77-3.34-6.77c0,0-1.61-2.18-2.44-2.41-.82-.24-10.35-1.29-13.3.02,0,0-1.44.41-2.56,2.6-.87,1.66-2.69,5.08-3.51,6.61h-2.49c-1.22,0-2.22,1.16-2.22,2.57,0,1.4,1,2.55,2.22,2.55Z"/><path class="cls-2" d="M26.63,249.69l30.95-.05c1.23,0,2.23-1.15,2.23-2.56,0-1.41-1-2.56-2.23-2.55l-30.95.05c-1.23,0-2.22,1.15-2.22,2.56,0,1.41,1,2.55,2.23,2.55Z"/><path class="cls-5" d="M31.55,294.64c-.31.63-.37,1.12-.17,1.44.19.32.4.48.6.48.46,0,1.09-.64,1.39-1.23.44-.88.4-1.98.23-2.92-.98.7-1.67,1.46-2.05,2.24Z"/><path class="cls-5" d="M44.84,295.87c-.21.46-.28,1.33-.05,1.69.04.07.09.11.21.11.09,0,.24-.02.47-.12.57-.24,1.06-.75,1.36-1.42.55-1.22.61-2.39.2-3.36-.08.09-.16.19-.24.28-.73.9-1.49,1.82-1.97,2.82Z"/><path class="cls-5" d="M54.7,282.12c-4.2-9.02-7.84-19.08-11.1-30.71h-4.69c-3.03,10.94-6.39,20.46-10.25,29.07,3.08,1.43,5.48,4.11,6.82,7.6,2.12-.87,4.29-1.18,6.61-.96,1.94.19,3.57.65,4.87,1.37,1.24-1.48,4.2-4.67,7.75-6.38Z"/><path class="cls-5" d="M61.73,287.75c.06,0,.14.01.2.01.39,0,.84-.15.93-.49.17-.67-.17-1.29-.47-1.68-.76-.97-2.18-1.71-3.3-1.7-.09,0-.18,0-.27.02.25.51.5,1.02.76,1.53.52,1.07,1.18,2.17,2.14,2.32Z"/><path class="cls-5" d="M21.82,286.87h.01c.1,0,.42-.13,1.14-1.31l.06-.1c.45-.89.9-1.81,1.37-2.79-1.02.11-1.87.46-2.39,1.02-.45.48-.65,1.12-.6,1.9.06.88.29,1.21.41,1.27Z"/><path class="cls-5" d="M42.25,341.52c23.02-.04,41.66-18.73,41.63-41.75-.02-16.79-9.97-31.23-24.28-37.82v-8.1c-.01-1.36-1.12-2.46-2.48-2.46h-10.45c3.2,11.32,6.75,21.07,10.84,29.79,2.35-.45,4.43.11,6.15,1.65,1.19,1.07,2.33,2.92,2.19,4.65-.09,1.07-.65,1.96-1.63,2.58-.7.44-1.44.67-2.19.67-2.31,0-4.14-2.08-5.01-3.87-.33-.66-.67-1.32-.99-1.99-2.39,1.14-4.84,3.13-6.84,5.56.57.8.94,1.72,1.08,2.76.25,1.77-.63,4.39-2,5.96-1.47,1.69-3.35,1.99-5.04.77-.93-.68-1.48-1.52-1.61-2.51-.3-2.27,1.68-4.68,3.11-6.44.07-.08.13-.15.19-.23-.4-.18-.85-.32-1.32-.41-2.51-.52-4.75-.45-6.4.2-.31.12-.61.24-.9.38.12.61.22,1.22.27,1.81.25,2.59-.46,4.48-2.25,5.94-.69.56-1.58.89-2.46.88-.86,0-1.61-.3-2.16-.88-.98-1.02-1.41-2.17-1.3-3.42.23-2.51,2.53-4.43,3.52-5.14.29-.2.58-.41.89-.6-.75-2.1-2.35-5.21-5.33-6.39-.61,1.29-1.23,2.56-1.85,3.8-.04.09-.1.17-.16.25-.54.83-1.97,2.69-3.72,2.7-.64,0-1.24-.24-1.79-.72-1.68-1.48-1.75-3.98-1.07-5.81.84-2.28,3.08-3.64,5.99-3.65.31,0,.61.02.92.04,3.77-8.35,7.07-17.62,10.06-28.29h-8.72c-1.37.02-2.47,1.12-2.47,2.49v8.1c-14.27,6.63-24.18,21.1-24.15,37.89.03,23.02,18.73,41.66,41.75,41.63Z"/><rect class="cls-4" x="40.68" width="2" height="221.07"/><rect class="cls-4" x="311.31" width="2" height="183.26"/><rect class="cls-4" x="174.65" width="2" height="136.07"/></g></svg>