<?xml version="1.0" encoding="UTF-8"?><svg id="Layer_2" xmlns="http://www.w3.org/2000/svg" xmlns:xlink="http://www.w3.org/1999/xlink" viewBox="0 0 57.72 161.1"><defs><style>.cls-1{clip-path:url(#clippath);}.cls-2{fill:none;}.cls-2,.cls-3,.cls-4,.cls-5,.cls-6,.cls-7,.cls-8{stroke-width:0px;}.cls-3{fill:#f24848;}.cls-3,.cls-4,.cls-5,.cls-6,.cls-7,.cls-8{fill-rule:evenodd;}.cls-9{clip-path:url(#clippath-1);}.cls-4{fill:#222;}.cls-5{fill:#4f4f4f;}.cls-6{fill:#f9ebba;}.cls-7{fill:#3d3d3d;}.cls-8{fill:#e8ce9b;}</style><clipPath id="clippath"><path class="cls-2" d="M19.15,126.57l12.05-.56s-.62,1.46,5.23,9.09c5.79,7.55-2.47,17.81-17.28,17.3-14.82.51-23.08-9.75-17.28-17.3,5.86-7.63,5.23-9.09,5.23-9.09l12.05.56Z"/></clipPath><clipPath id="clippath-1"><path class="cls-2" d="M19.15,126.57l12.05-.56s-.62,1.46,5.23,9.09c5.79,7.55-2.47,17.81-17.28,17.3-14.82.51-23.08-9.75-17.28-17.3,5.86-7.63,5.23-9.09,5.23-9.09l12.05.56Z"/></clipPath></defs><g id="Layer_1-2"><path class="cls-3" d="M22.32,135.25l12.05-.56s-.62,1.46,5.23,9.09c5.79,7.55-2.47,17.81-17.28,17.3-14.82.51-23.08-9.75-17.28-17.3,5.86-7.63,5.23-9.09,5.23-9.09l12.05.56Z"/><path class="cls-3" d="M22.02,123.95c8.95,0,16.21,3.19,16.21,7.12s-7.26,7.12-16.21,7.12-16.21-3.19-16.21-7.12,7.26-7.12,16.21-7.12Z"/><path class="cls-7" d="M19.15,126.57l12.05-.56s-.62,1.46,5.23,9.09c5.79,7.55-2.47,17.81-17.28,17.3-14.82.51-23.08-9.75-17.28-17.3,5.86-7.63,5.23-9.09,5.23-9.09l12.05.56Z"/><g class="cls-1"><path class="cls-5" d="M30.17,126.46c-5.8,5.62-8.55,13.91-9.84,21.21-.37,2.12-.55,4.25-.71,6.39-.05.7.24,2.16-.16,2.8-.44.71-4.44,1.25-5.41.77-1.93-.95-.65-5.86-.53-7.35.55-7.39,4.08-14.25,7.97-20.75,1.33-2.22,3.08-4.23,4.47-6.41.11-.18-1.15-.87-1.35-.96-2.78-1.37-4.84,2.78-5.84,4.45-3.48,5.84-6.11,12.13-7.41,18.63-.49,2.45-1.1,4.92-1.2,7.42,0,.07.25,2.42-.49,2.15-.55-.2-.73-1.45-.77-1.88-.21-1.96.27-4.04.63-5.97,1.15-6.19,3.42-12.13,5.77-18.04.69-1.74,1.23-5.09,2.92-6.32,3.4-2.48,11.62-1.22,11.81,3.24"/></g><g class="cls-9"><path class="cls-4" d="M19.66,115.31c8.9.79,15.76,4.6,15.31,8.51-.45,3.91-8.05,6.45-16.95,5.66-8.9-.79-15.76-4.6-15.31-8.51.45-3.91,8.05-6.45,16.95-5.66Z"/></g><path class="cls-7" d="M18.84,115.27c8.95,0,16.21,3.19,16.21,7.12s-7.26,7.12-16.21,7.12-16.21-3.19-16.21-7.12,7.26-7.12,16.21-7.12Z"/><path class="cls-4" d="M18.96,117.62c6.86,0,12.43,1.9,12.43,4.24s-5.57,4.24-12.43,4.24-12.43-1.9-12.43-4.24,5.57-4.24,12.43-4.24Z"/><path class="cls-6" d="M30.76,20.8c5.19-6.53,11.59-12.01,19.1-16.55,1.99-1.2,4.04-2.3,6.11-3.38.14-.07,1.54-.95,1.72-.86.15.07-.53,1.68-.56,1.78-1,2.51-2.16,4.96-3.1,7.49-2.3,6.22-4.21,12.44-5.39,18.9-1.95,10.69-2.44,21.71-3.77,32.59-.85-.07-2.77-.22-3.04.23-.05.08,1.25,1,1.3,1.04.48.36.96.72,1.44,1.09-1.15,8.51-2.92,16.9-6.41,24.95-.16.37-.32.73-.49,1.09-1.18-.35-2.47-.63-3.3-.28-.19.08.31.25.47.37.26.21.53.42.8.64.41.32.81.65,1.21.98-4.27,8.44-10.52,15.32-16.61,22.91,0,0-10.13-15.97-10.2-24.09-.11-12.95,2.47-25.88,6.25-38.36.11-.35.21-.7.32-1.05,1.15.26,2.38.51,2.91.23.51-.27-.34-1.01-.64-1.46-.39-.58-.87-1.1-1.37-1.61,2.75-8.5,6.21-17.07,11.63-24.51.99.22,2.05.44,2.1.35.39-.72.09-1.6-.47-2.49Z"/><path class="cls-8" d="M16.52,126.03c-.71-6.42,1.53-19.16,2.24-25.54,1.6-14.27,4.62-28.2,8.47-42.13,1.94-7.03,11.7-30.25,11.7-30.25,0,0-7.93,23.84-9.64,31.23-2.56,11.01-3.94,22.27-5.49,33.41-1.49,10.7-2.91,22.48-2.67,33.29-1.52.1-3.06.1-4.6-.01Z"/></g></svg>