<?xml version="1.0" encoding="UTF-8"?><svg id="Layer_2" xmlns="http://www.w3.org/2000/svg" xmlns:xlink="http://www.w3.org/1999/xlink" viewBox="0 0 453.54 306.23"><defs><style>.cls-1,.cls-2,.cls-3,.cls-4,.cls-5,.cls-6,.cls-7,.cls-8,.cls-9,.cls-10,.cls-11,.cls-12,.cls-13,.cls-14,.cls-15,.cls-16,.cls-17,.cls-18,.cls-19,.cls-20,.cls-21,.cls-22{stroke-width:0px;}.cls-1,.cls-2,.cls-8,.cls-10,.cls-16,.cls-17,.cls-20{opacity:.5;}.cls-1,.cls-2,.cls-8,.cls-10,.cls-16,.cls-17,.cls-20,.cls-21{isolation:isolate;}.cls-1,.cls-4{fill:#f28a85;}.cls-2,.cls-15{fill:#e1206f;}.cls-3{fill:#f1dfd3;}.cls-23{clip-path:url(#clippath);}.cls-5,.cls-17{fill:#f8aa96;}.cls-6{fill:none;}.cls-7,.cls-10{fill:#d82125;}.cls-8,.cls-12{fill:#ef5357;}.cls-9{fill:#63396b;}.cls-24{clip-path:url(#clippath-1);}.cls-25{clip-path:url(#clippath-4);}.cls-26{clip-path:url(#clippath-3);}.cls-27{clip-path:url(#clippath-2);}.cls-28{clip-path:url(#clippath-6);}.cls-29{clip-path:url(#clippath-5);}.cls-11{fill:#895a27;}.cls-13,.cls-20{fill:#f47528;}.cls-14{fill:#ae9a3b;}.cls-16,.cls-22{fill:#ffce23;}.cls-18{fill:#5e2315;}.cls-19{fill:#f78b1f;}.cls-21{fill:#fff;opacity:.3;}</style><clipPath id="clippath"><path class="cls-6" d="M381.26,82.1c-1.26,1.34-2.39,190.49,0,191.51,2.39,1.02,9.88,7.16,23.85,6.82,13.97-.34,22.15-7.5,22.49-9.54.34-2.04,1.1-187.13,0-188.78-4.09-6.14-41.23-5.45-46.34,0Z"/></clipPath><clipPath id="clippath-1"><path class="cls-6" d="M302.21,78.52c-1.67,1.49,9.11,195.93,12.53,196.77,3.42.84,14.36,6.47,33.98,4.87,19.62-1.6,30.65-9.69,30.99-11.82.35-2.13-10.69-192.37-12.35-193.97-6.15-5.94-58.32-1.91-65.14,4.15Z"/></clipPath><clipPath id="clippath-2"><path class="cls-6" d="M73.66,6.05c-1.24,1.13,17.69,270.15,20.25,270.74,2.57.6,10.81,4.73,25.5,3.36,14.68-1.36,22.88-7.51,23.12-9.11.24-1.6-18.85-267.46-20.1-268.65-4.65-4.4-43.7-.95-48.77,3.65Z"/></clipPath><clipPath id="clippath-3"><path class="cls-6" d="M199.95,67.1c-1.47,1.44-2.8,204.89,0,206,2.8,1.1,11.58,7.7,27.96,7.33,16.38-.36,25.96-8.06,26.36-10.26.4-2.2,1.29-201.28,0-203.06-4.79-6.6-48.33-5.86-54.33,0Z"/></clipPath><clipPath id="clippath-4"><path class="cls-6" d="M20.31,62.07c-1.51,1.48-2.86,209.72,0,210.85,2.86,1.13,11.86,7.88,28.62,7.5,16.76-.38,26.58-8.25,26.98-10.5.41-2.25,1.32-206.02,0-207.85-4.9-6.75-49.47-6-55.61,0Z"/></clipPath><clipPath id="clippath-5"><path class="cls-6" d="M256.93,21.38c-1.21,1.47-2.3,250.42,0,251.54,2.3,1.13,9.52,7.88,22.97,7.5,13.45-.38,21.33-8.25,21.66-10.5.33-2.25,1.06-246.72,0-248.54-3.93-6.75-39.71-6-44.63,0Z"/></clipPath><clipPath id="clippath-6"><path class="cls-6" d="M130.36,93.49c-1.02,1.3,21.22,182.88,23.56,183.47,2.34.59,10,4.94,23,2.98,12.99-1.97,19.84-9.07,19.93-10.86.1-1.79-22.05-179.85-23.26-181.14-4.49-4.76-39.06.27-43.23,5.55Z"/></clipPath></defs><g id="Layer_1-2"><g id="OBJECTS"><path class="cls-18" d="M449.56,306.23H3.98c-5.3,0-5.3-25.2,0-25.2h445.58c5.3,0,5.3,25.2,0,25.2Z"/><path class="cls-15" d="M381.26,82.1c-1.26,1.34-2.39,190.49,0,191.51,2.39,1.02,9.88,7.16,23.85,6.82,13.97-.34,22.15-7.5,22.49-9.54.34-2.04,1.1-187.13,0-188.79-4.09-6.13-41.23-5.45-46.34,0Z"/><path class="cls-21" d="M403.59,193.84c5.39,0,9.76-4.37,9.76-9.75v-106.06c-6.24-.48-13.44-.33-19.51.37v105.69c0,5.39,4.37,9.75,9.76,9.75Z"/><path class="cls-2" d="M384.97,80.14c-1.72.56-3.02,1.21-3.71,1.95-1.26,1.34-2.39,190.49,0,191.51,2.39,1.02,9.88,7.16,23.85,6.82,13.97-.34,22.15-7.5,22.49-9.54.06-.35.13-5.94.2-15-40.55-45.77-48.65-115.08-42.83-175.74Z"/><g class="cls-23"><path class="cls-13" d="M432.31,80.67c.08,3.55-.51,7.19-.59,10.75-.17,4.48-.42,8.89-.42,13.37,0,2.71.59,6.26-.17,8.8l-51.83,1.27c.76-2.54.17-6.09.17-8.8,0-4.48.25-8.88.42-13.37.08-3.55.68-7.19.59-10.74l51.83-1.27Z"/><path class="cls-18" d="M386.02,77.79c0-.66-1.03-.66-1.03,0,.04,5.48-.6,11-.83,16.48-.11,2.8-.22,5.6-.17,8.4.05,2.66.48,5.28-.16,7.91-.16.64.83.91.99.27.53-2.17.41-4.35.28-6.57-.16-2.7-.07-5.4.02-8.1.2-6.12.95-12.27.9-18.38Z"/><path class="cls-18" d="M392.61,77.37c0-.66-1.03-.66-1.03,0,.04,5.48-.6,11-.83,16.48-.11,2.8-.22,5.6-.17,8.4.05,2.66.48,5.28-.16,7.91-.16.64.83.91.99.27.53-2.17.41-4.35.28-6.57-.16-2.7-.07-5.4.02-8.1.2-6.11.95-12.27.9-18.38Z"/><path class="cls-18" d="M399.21,76.51c0-.66-1.03-.66-1.03,0,.04,5.48-.6,11-.83,16.48-.11,2.8-.22,5.6-.17,8.4.05,2.66.48,5.28-.17,7.91-.16.64.83.92.99.27.53-2.17.41-4.36.28-6.57-.16-2.7-.07-5.4.02-8.1.2-6.12.95-12.27.9-18.38Z"/><path class="cls-18" d="M405.8,76c0-.66-1.03-.66-1.03,0,.04,5.48-.6,11-.83,16.48-.11,2.8-.22,5.6-.17,8.4.05,2.66.48,5.28-.17,7.9-.16.64.83.91.99.27.53-2.17.41-4.35.28-6.57-.16-2.7-.07-5.4.02-8.1.2-6.11.95-12.27.9-18.38Z"/><path class="cls-18" d="M412.4,75.55c0-.66-1.03-.66-1.03,0,.04,5.48-.6,11-.83,16.48-.11,2.8-.22,5.6-.17,8.4.05,2.66.48,5.28-.16,7.9-.16.64.83.92.99.27.53-2.17.41-4.35.28-6.57-.16-2.7-.07-5.4.02-8.1.2-6.11.95-12.27.9-18.38Z"/><path class="cls-18" d="M419,76.51c0-.66-1.03-.66-1.03,0,.04,5.48-.6,11-.83,16.48-.11,2.8-.22,5.6-.17,8.4.05,2.66.48,5.28-.17,7.91-.16.64.83.92.99.27.53-2.17.41-4.36.28-6.57-.16-2.7-.07-5.4.02-8.1.2-6.12.95-12.27.9-18.38Z"/><path class="cls-18" d="M424.69,94.9c.2-6.12.95-12.27.9-18.38,0-.66-1.03-.66-1.03,0,.04,5.48-.6,11-.83,16.48-.11,2.8-.22,5.6-.17,8.4.05,2.66.48,5.28-.17,7.91-.16.64.83.92.99.27.53-2.17.41-4.36.28-6.57-.16-2.7-.07-5.4.02-8.1Z"/><path class="cls-9" d="M440.51,113.57c-22.99-8.07-46.05-5.18-69.5-.93v15.34c23.45-4.25,46.51-7.14,69.5.93v-15.34Z"/><path class="cls-3" d="M405.51,224.09c11.94,0,9.26-78.99,0-78.99s-11.94,78.99,0,78.99Z"/><path class="cls-18" d="M413.09,163.78c-.69-5.7-1.39-12.78-4.46-17.62-2.25-3.55-5.28-2.1-6.91,1.22-2.78,5.68-3.43,12.9-4.11,19.21-.99,9.11-1.27,18.35-1.02,27.52.21,7.7.68,15.73,2.75,23.13.9,3.23,2.58,7.89,6.18,8,4.28-.14,5.88-6.48,6.73-10.17,1.82-7.86,2.15-16.21,2.26-24.29.12-9.01-.33-18.06-1.41-26.99ZM410.97,210.8c-.47,2.93-1.61,12.02-5.46,12.14-3.95-.12-5.05-9.6-5.53-12.58-1.39-8.64-1.55-17.58-1.39-26.34.16-8.71.74-17.51,2.28-26.07.32-1.8,1.94-12.28,4.75-11.71,1.32.27,2.11,2.64,2.53,3.81,1.08,2.94,1.68,6.1,2.21,9.2,1.45,8.51,1.94,17.25,2.07,25.9.13,8.54-.12,17.22-1.47,25.64Z"/><path class="cls-18" d="M440.78,127.92c-22.84-7.87-46.77-5.13-70.04-.93-1.3.23-.75,2.21.55,1.98,22.93-4.13,46.46-6.82,68.95.93,1.26.43,1.79-1.55.55-1.98Z"/><path class="cls-18" d="M440.78,122.81c-22.84-7.87-46.77-5.13-70.04-.93-1.3.23-.75,2.21.55,1.98,22.93-4.13,46.46-6.82,68.95.93,1.26.43,1.79-1.55.55-1.98Z"/><path class="cls-18" d="M440.78,117.7c-22.84-7.87-46.77-5.13-70.04-.93-1.3.23-.75,2.21.55,1.98,22.93-4.13,46.46-6.82,68.95.93,1.26.43,1.79-1.55.55-1.98Z"/><path class="cls-18" d="M371.28,113.63c22.93-4.13,46.46-6.82,68.95.93,1.26.43,1.79-1.55.55-1.98-22.84-7.87-46.77-5.13-70.05-.93-1.3.23-.75,2.21.55,1.98Z"/><path class="cls-13" d="M431.68,280.96c.08-3.55-.51-7.19-.59-10.75-.17-4.49-.42-8.89-.42-13.37,0-2.71.59-6.26-.17-8.8l-51.83-1.27c.76,2.54.17,6.09.17,8.8,0,4.48.25,8.89.42,13.37.08,3.55.68,7.19.59,10.74l51.83,1.27Z"/><path class="cls-18" d="M386.02,279.69c0,.66-1.03.66-1.03,0,.04-5.48-.6-11-.83-16.48-.11-2.8-.22-5.6-.17-8.4.05-2.66.48-5.28-.16-7.9-.16-.64.83-.91.99-.27.53,2.17.41,4.36.28,6.57-.16,2.7-.07,5.4.02,8.1.2,6.11.95,12.27.9,18.38Z"/><path class="cls-18" d="M392.61,280.11c0,.66-1.03.66-1.03,0,.04-5.48-.6-11-.83-16.48-.11-2.8-.22-5.6-.17-8.39.05-2.66.48-5.28-.16-7.91-.16-.64.83-.91.99-.27.53,2.17.41,4.36.28,6.57-.16,2.7-.07,5.4.02,8.1.2,6.12.95,12.27.9,18.38Z"/><path class="cls-18" d="M399.21,280.96c0,.66-1.03.66-1.03,0,.04-5.48-.6-11-.83-16.48-.11-2.8-.22-5.6-.17-8.4.05-2.66.48-5.28-.17-7.9-.16-.64.83-.92.99-.27.53,2.17.41,4.35.28,6.57-.16,2.7-.07,5.4.02,8.1.2,6.12.95,12.27.9,18.38Z"/><path class="cls-18" d="M405.8,281.47c0,.66-1.03.66-1.03,0,.04-5.48-.6-11-.83-16.48-.11-2.8-.22-5.6-.17-8.4.05-2.66.48-5.28-.17-7.91-.16-.64.83-.92.99-.27.53,2.17.41,4.36.28,6.57-.16,2.7-.07,5.4.02,8.1.2,6.11.95,12.27.9,18.38Z"/><path class="cls-18" d="M412.4,281.93c0,.66-1.03.66-1.03,0,.04-5.48-.6-11-.83-16.48-.11-2.8-.22-5.6-.17-8.39.05-2.66.48-5.28-.16-7.91-.16-.64.83-.92.99-.27.53,2.17.41,4.36.28,6.57-.16,2.7-.07,5.4.02,8.1.2,6.12.95,12.27.9,18.39Z"/><path class="cls-18" d="M419,280.96c0,.66-1.03.66-1.03,0,.04-5.48-.6-11-.83-16.48-.11-2.8-.22-5.6-.17-8.4.05-2.66.48-5.28-.17-7.9-.16-.64.83-.92.99-.27.53,2.17.41,4.35.28,6.57-.16,2.7-.07,5.4.02,8.1.2,6.12.95,12.27.9,18.38Z"/><path class="cls-18" d="M424.69,262.58c.2,6.11.95,12.27.9,18.38,0,.66-1.03.66-1.03,0,.04-5.48-.6-11-.83-16.48-.11-2.8-.22-5.6-.17-8.4.05-2.66.48-5.28-.17-7.9-.16-.64.83-.92.99-.27.53,2.17.41,4.35.28,6.57-.16,2.7-.07,5.4.02,8.1Z"/><path class="cls-9" d="M440.51,243.9c-22.99,8.07-46.05,5.18-69.5.93v-15.33c23.45,4.25,46.51,7.14,69.5-.93v15.33Z"/><path class="cls-18" d="M440.78,229.55c-22.84,7.87-46.77,5.13-70.04.93-1.3-.24-.75-2.21.55-1.98,22.93,4.13,46.46,6.82,68.95-.93,1.26-.43,1.79,1.55.55,1.98Z"/><path class="cls-18" d="M440.78,234.66c-22.84,7.87-46.77,5.13-70.04.93-1.3-.23-.75-2.21.55-1.98,22.93,4.13,46.46,6.82,68.95-.93,1.26-.43,1.79,1.55.55,1.98Z"/><path class="cls-18" d="M440.78,239.78c-22.84,7.87-46.77,5.13-70.04.93-1.3-.23-.75-2.21.55-1.98,22.93,4.13,46.46,6.82,68.95-.93,1.26-.43,1.79,1.55.55,1.98Z"/><path class="cls-18" d="M371.28,243.84c22.93,4.13,46.46,6.82,68.95-.93,1.26-.43,1.79,1.55.55,1.98-22.84,7.87-46.77,5.13-70.05.93-1.3-.23-.75-2.21.55-1.98Z"/></g><path class="cls-18" d="M381.39,82.17c-.06-.12-.23,1.8-.32,5.29-.11,3.5-.23,8.65-.26,15.19-.08,6.55.02,14.5.07,23.62.09,9.12.19,19.41.3,30.63.1,11.23.07,23.38,0,36.24-.12,12.86-.26,26.42-.39,40.45-.04,7.01-.1,14.15,0,21.36.03,3.61.1,7.24.23,10.88.07,1.82.14,3.65.29,5.46.04.45.08.9.14,1.34.03.21.07.44.12.61.01.06.02.05.02.07-.06-.1-.21-.15-.07-.08l.31.15c.86.45,1.63.92,2.43,1.37,3.17,1.8,6.58,3.2,10.14,4.05,3.55.83,7.26,1.2,10.91,1.05,1.88-.1,3.69-.27,5.49-.62,1.81-.3,3.58-.82,5.32-1.39,3.42-1.23,6.8-2.93,9.36-5.39.31-.31.6-.63.85-.95.15-.16.2-.32.31-.48.06-.09.06-.13.08-.18l.03-.07s0,.02.01-.09c.02-.8.02-1.82.02-2.73v-5.6c-.03-3.74-.05-7.47-.07-11.2-.02-7.45-.05-14.88-.07-22.24-.02-14.73-.05-29.23-.07-43.26,0-7.02,0-13.91,0-20.66.02-6.75.03-13.36.05-19.79.05-12.86.09-25.02.22-36.24.06-5.61.11-10.99.16-16.1.02-2.55.03-5.05,0-7.46-.01-.6-.02-1.2-.03-1.79-.04-.54,0-1.33-.12-1.26l-.28-.34-.27-.2-.26-.21-.34-.2c-.43-.29-.95-.49-1.44-.71-2.04-.79-4.19-1.25-6.27-1.6-2.08-.34-4.11-.56-6.07-.72-3.92-.32-7.54-.35-10.8-.25-6.53.19-11.64.94-15.01,1.85-1.68.46-2.92.98-3.68,1.43-.19.12-.35.22-.5.31-.12.11-.23.2-.31.27-.17.15-.25.22-.25.22l.02-.03ZM381.15,81.99s.09-.08.27-.24c.09-.08.2-.18.34-.29.15-.09.32-.2.52-.33.79-.48,2.05-1.02,3.75-1.49,3.4-.96,8.52-1.72,15.08-2.09,3.28-.15,6.92-.23,10.88-.07,1.98.09,4.04.23,6.18.5,2.13.28,4.35.66,6.59,1.44.56.22,1.12.42,1.67.75l.42.23c.14.09.29.21.43.32l.43.34.29.33.15.16s.11.12.14.22c.04.09.07.18.09.27.06.23.04.22.06.33l.03.24.08.92c.04.6.07,1.21.11,1.82.12,2.43.21,4.92.3,7.48.16,5.12.33,10.5.43,16.11.25,11.23.33,23.39.38,36.25.04,6.43.05,13.04.02,19.79-.03,6.75-.06,13.65-.09,20.67-.13,14.03-.26,28.53-.39,43.26-.11,7.36-.22,14.79-.33,22.24-.08,3.73-.16,7.46-.24,11.2l-.14,5.61c-.03.96-.04,1.81-.11,2.88-.04.32-.19.74-.33.97-.15.23-.3.51-.47.69-.33.42-.68.77-1.04,1.12-2.93,2.67-6.45,4.31-10.06,5.52-1.82.55-3.67,1.04-5.55,1.31-1.88.32-3.79.44-5.64.5-3.8.12-7.56-.29-11.22-1.18-3.65-.89-7.14-2.37-10.36-4.23-.8-.46-1.6-.95-2.36-1.36l-.31-.15s-.21-.09-.33-.29c-.04-.08-.09-.19-.1-.25-.08-.27-.11-.5-.15-.74-.07-.47-.11-.93-.15-1.39-.16-1.84-.24-3.67-.32-5.5-.12-3.65-.24-7.29-.36-10.9-.18-7.22-.36-14.35-.54-21.37-.29-14.03-.57-27.6-.62-40.46-.04-12.86.02-25.02.24-36.25.21-11.23.54-21.51.78-30.63.27-9.12.51-17.07.7-23.61.2-6.55.35-11.69.45-15.2.13-3.52.26-5.34.39-5.43l.02-.03Z"/><path class="cls-12" d="M302.21,78.52c-1.67,1.49,9.11,195.93,12.53,196.77,3.42.84,14.36,6.47,33.98,4.87,19.62-1.6,30.65-9.69,30.99-11.82.35-2.13-10.69-192.37-12.35-193.97-6.15-5.94-58.32-1.91-65.14,4.15Z"/><path class="cls-21" d="M339.64,232.65c10.2-.65,17.94-9.44,17.29-19.64l-9.01-141.54c-12.2.03-27.24,1.51-36.84,3.72l8.93,140.18c.65,10.2,9.44,17.94,19.64,17.29Z"/><path class="cls-8" d="M307.7,195.64c2.65,42.01,5.55,79.28,7.04,79.64,3.42.84,14.36,6.47,33.98,4.87,3.01-.24,5.81-.64,8.4-1.15-24.35-20.35-39.89-50.1-49.42-83.36Z"/><g class="cls-24"><path class="cls-3" d="M299.52,93.45c.54,3.06,2.32,9.31,6.48,7.16,2.5-1.19,3.94-5.58,5.18-7.73.88,3.04,3.38,7.18,7.28,6.24,3.04-.88,4.69-4.6,5.56-7.23.4,3.59,2.88,7.38,7.1,6.08,3.04-.88,5.52-5.17,6.54-7.98.73,3.4,3.04,7.2,6.95,6.44,4.41-.97,5.87-5.02,8.44-7.93,1.03,2.69,3.06,7.55,7.13,6.6,2.37-.66,4.66-5.11,5.39-7.22.38,9.27,11.21,8.58,11.35-.03l-77.39,5.61Z"/><path class="cls-11" d="M378.09,34.41c.49,5.6-.08,11.39.14,17,.18,7.09.23,14.05.68,21.12.27,4.27,1.56,9.81.62,13.9l-81.59,7.21c.95-4.08-.34-9.62-.61-13.89-.45-7.07-.49-14.03-.68-21.12-.22-5.61.35-11.41-.15-17l81.59-7.21Z"/><path class="cls-18" d="M306.22,41c-.07-1.04-1.69-.94-1.62.1.61,8.63.15,17.4.35,26.06.1,4.42.21,8.85.57,13.26.34,4.19,1.28,8.27.53,12.48-.18,1.03,1.4,1.36,1.59.33.62-3.48.21-6.91-.22-10.39-.52-4.24-.65-8.51-.78-12.77-.29-9.66.26-19.44-.42-29.07Z"/><path class="cls-18" d="M316.58,39.68c-.07-1.04-1.69-.94-1.62.1.62,8.63.15,17.41.35,26.07.1,4.42.21,8.85.57,13.25.34,4.19,1.28,8.28.53,12.48-.18,1.03,1.41,1.36,1.59.33.62-3.48.21-6.91-.22-10.39-.52-4.24-.65-8.51-.78-12.77-.29-9.66.26-19.44-.42-29.07Z"/><path class="cls-18" d="M326.89,37.67c-.07-1.04-1.69-.94-1.62.1.62,8.63.15,17.41.35,26.07.1,4.42.21,8.85.57,13.26.34,4.19,1.29,8.27.54,12.48-.19,1.03,1.4,1.36,1.59.33.62-3.48.21-6.91-.22-10.39-.52-4.24-.65-8.51-.78-12.77-.29-9.66.26-19.44-.43-29.08Z"/><path class="cls-18" d="M337.24,36.2c-.08-1.04-1.69-.94-1.62.1.62,8.63.15,17.41.35,26.07.1,4.42.21,8.85.57,13.25.34,4.19,1.29,8.28.54,12.48-.18,1.03,1.4,1.36,1.59.33.62-3.48.21-6.91-.22-10.39-.52-4.24-.65-8.51-.78-12.77-.3-9.66.26-19.44-.43-29.08Z"/><path class="cls-18" d="M347.59,34.82c-.07-1.04-1.69-.94-1.62.1.61,8.63.15,17.41.35,26.07.1,4.42.21,8.85.57,13.25.34,4.19,1.29,8.28.54,12.48-.19,1.03,1.4,1.36,1.59.33.62-3.48.21-6.91-.22-10.39-.52-4.24-.65-8.51-.78-12.77-.3-9.66.26-19.44-.43-29.08Z"/><path class="cls-18" d="M358.09,35.68c-.07-1.04-1.69-.94-1.62.1.62,8.63.15,17.41.35,26.07.1,4.42.21,8.85.57,13.26.34,4.19,1.29,8.27.54,12.48-.18,1.03,1.4,1.36,1.59.33.62-3.48.21-6.91-.22-10.39-.52-4.24-.65-8.51-.78-12.77-.3-9.66.26-19.44-.43-29.08Z"/><path class="cls-18" d="M368.92,64.1c-.29-9.66.26-19.44-.42-29.08-.08-1.04-1.69-.94-1.62.1.61,8.63.15,17.41.35,26.07.1,4.42.21,8.85.57,13.26.34,4.19,1.29,8.28.53,12.48-.18,1.03,1.41,1.36,1.59.33.62-3.48.21-6.91-.22-10.39-.52-4.24-.65-8.5-.78-12.77Z"/><path class="cls-22" d="M366.68,231.07c-.17-10.16-6.06-95.19-7.47-117.35,0,0-9.66-4.88-23.39-3.93-13.73.95-19.79,6.67-19.79,6.67,1.41,22.15,7.3,107.19,7.47,117.35,0,0,6.65,3.02,19.56,2.7,12.91-.32,23.61-5.45,23.61-5.45Z"/><path class="cls-3" d="M354.26,115.61c-2.09-1.13-7.5-.45-7.5-.45,0-.08-.73,4.41-1.19,6.37-.79,3.41-1.76,5.32-5.21,6.54-7.23,2.56-12.89-4.64-13.05-11.17,0,0-3.94.17-5.44,2.95l6.79,106.58c1.84,2.57,5.77,2.24,5.77,2.24-.67-6.51,4.04-14.36,11.53-12.74,3.58.78,4.78,2.55,5.99,5.83.71,1.89,1.99,6.25,1.99,6.17,0,0,5.46-.01,7.38-1.39l-7.06-110.93Z"/><path class="cls-18" d="M337.06,124.26c1.79-.11,3.18-1.7,3.07-3.48-.11-1.78-1.7-3.18-3.48-3.06-1.78.11-3.18,1.7-3.07,3.48.11,1.79,1.7,3.18,3.48,3.07Z"/><path class="cls-18" d="M343.75,222.13c-1.54.1-2.74,1.46-2.64,3,.1,1.54,1.46,2.74,3,2.64,1.54-.1,2.74-1.46,2.64-3-.1-1.54-1.46-2.74-3-2.64Z"/><path class="cls-18" d="M365.05,189.79c-1.29-19.88-2.64-39.75-3.97-59.62-.24-3.65-.49-7.3-.73-10.95-.09-1.38.37-5.67-1.04-6.33-9.37-4.41-20.79-4.96-30.77-2.86-4.18.88-8.39,2.47-11.9,4.94-1.88,1.32-1.32,2.75-1.18,4.94.5,7.71,1.02,15.42,1.54,23.13,1.23,18.3,2.46,36.61,3.64,54.92.77,11.94,1.86,23.93,2.08,35.9,0,.27.19.55.43.66,6.05,2.7,13.48,2.9,19.97,2.79,8-.15,16.56-2.05,23.82-5.49.08-.04.15-.1.21-.15.19-.14.33-.35.33-.64-.25-13.74-1.53-27.52-2.42-41.23ZM332.2,235.15c-2.1-.29-4.17-.72-6.21-1.31-.55-.16-1.1-.34-1.63-.54-.03-.01-.05-.02-.07-.02-.05-1.84-.15-3.68-.24-5.52-.9-17.32-2.12-34.64-3.26-51.94-1.2-18.2-2.45-36.39-3.64-54.59-.08-1.32-.17-2.64-.26-3.96-.02-.26-.05-.37-.09-.41.39-.32.8-.61,1.21-.89,4.4-3.01,9.83-4.41,15.05-5.11,6.77-.91,13.73-.29,20.29,1.55,1.62.45,3.22,1.01,4.77,1.68.11.04.21.1.31.14.01.07.04.19.05.4.02.41.05.82.08,1.23,2.3,35.53,4.95,71.03,6.94,106.58.15,2.71.32,5.42.38,8.14-10.37,4.77-22.44,6.11-33.67,4.58Z"/><path class="cls-18" d="M354.96,115.23s0,0,0,0c-.04-.08-.1-.14-.17-.2-.02-.02-.04-.03-.06-.04-.04-.03-.07-.06-.11-.08-2.39-1.07-5.37-.83-7.91-.53-.36.04-.64.27-.73.63-1.06,4.64-.68,10.3-5.88,12.33-6.67,2.6-11.7-4.65-12-10.47-.02-.43-.42-.77-.84-.74-1.82.11-6.33,1.42-6.17,3.88.06.94.12,1.88.18,2.82.33,5.12.65,10.23.98,15.35,1.05,16.53,2.11,33.06,3.16,49.59.65,10.15,1.29,20.3,1.94,30.44.16,2.48.32,4.96.47,7.43.19,3,4.09,4.01,6.66,3.83.43-.03.77-.41.74-.84-.46-6.18,3.6-13.15,10.58-11.91,5.39.95,5.84,7.27,7.39,11.48.13.35.44.54.8.53,2.56-.02,5.54-.17,7.78-1.53.23-.14.37-.44.35-.71-1.64-25.69-3.27-51.37-4.91-77.06-.72-11.29-1.44-22.58-2.16-33.87,0-.02-.01-.03-.01-.04,0-.1-.03-.19-.08-.29ZM360.02,218.57c.14,2.25.29,4.5.43,6.75.03.41.05.82.08,1.23-.03-.5-2.63.29-3.06.35-.98.15-1.98.2-2.98.23-1.88-5.39-2.92-12.06-10.05-12.18-6.94-.11-10.94,6.64-10.83,12.96-1.77-.02-4.1-.53-4.21-2.37-.09-1.48-.19-2.96-.28-4.44-.38-5.88-.75-11.76-1.12-17.64-1.07-16.81-2.14-33.61-3.21-50.42-.53-8.31-1.06-16.63-1.59-24.94-.14-2.23-.28-4.46-.43-6.7-.03-.48-.06-.95-.09-1.43-.07-1.11,2.44-1.9,3.93-2.17.7,6.27,5.53,12.45,12.39,11.45,7.07-1.02,7.24-7.78,8.43-13.37,1.98-.23,4.23-.38,6.09.29,1.62,25.52,3.25,51.03,4.87,76.55.55,8.61,1.1,17.23,1.65,25.85Z"/><path class="cls-18" d="M293.62,95.82c15.03-2.07,30.11-3.71,45.22-5.08,7.58-.69,15.13-1.3,22.74-1.46,7.58-.17,15.16-.12,22.73-.61,2.04-.13,1.84-3.29-.2-3.16-7.57.49-15.15.46-22.73.6-7.61.15-15.17.78-22.74,1.46-15.11,1.35-30.19,3.01-45.22,5.07-2.01.28-1.83,3.44.2,3.17h0Z"/><path class="cls-18" d="M376.38,87.87c-.14,2.98-1.69,5.79-4.89,6.15-3.55.4-5.2-3.25-5.41-6.18-.03-.49-.81-.72-1-.2-.91,2.49-2.64,6.55-5.57,7.03-3.29.54-5.05-3.98-5.97-6.34-.14-.36-.63-.49-.9-.18-1.89,2.25-3.25,4.93-5.66,6.7-4.4,3.23-7.84-.98-8.83-5.03-.11-.43-.81-.48-.97-.07-1.08,2.8-2.64,5.57-5.18,7.26-3.95,2.62-6.96-1.74-7.45-5.16-.09-.62-.86-.63-1.05-.07-.95,2.79-2.46,6.37-5.75,6.93-3.27.55-5.28-3.51-6.07-6-.14-.45-.76-.45-.97-.06-1.46,2.67-2.43,6.38-5.43,7.71-3.39,1.49-4.82-4.76-5.22-6.93-.12-.66-1.18-.6-1.05.07.54,2.9,1.52,7.23,4.86,8.05,3.7.91,5.83-4.29,7.25-7.31,1.06,2.63,3.06,5.63,6.07,5.56,3.52-.09,5.48-3.07,6.72-6.07.83,2.73,2.68,4.97,5.84,5.04,3.75.08,6.38-3.94,7.84-7.19,1.01,2.91,2.98,5.44,6.35,5.48,4.25.06,6.67-4.5,8.97-7.51,1.13,2.77,2.74,5.79,5.96,6.19,3.08.38,5.24-3.09,6.49-5.9.71,2.82,2.57,5.11,5.82,5.26,4.01.18,6.12-3.84,6.28-7.28.03-.68-1.02-.61-1.05.07Z"/><path class="cls-3" d="M310.44,264.96c.15-3.11,1.11-9.53,5.52-7.92,2.64.86,4.62,5.04,6.12,7.01.49-3.13,2.44-7.55,6.43-7.12,3.13.49,5.24,3.97,6.43,6.47-.06-3.61,1.92-7.69,6.27-6.94,3.12.49,6.13,4.43,7.5,7.09.3-3.46,2.1-7.53,6.07-7.27,4.49.4,6.46,4.23,9.38,6.8.68-2.8,2.08-7.87,6.23-7.45,2.43.36,5.27,4.48,6.26,6.48-.8-9.24,10.03-9.93,11.26-1.41l-77.47,4.25Z"/><path class="cls-11" d="M395.86,313.56c-.22-5.61-1.52-11.29-2.01-16.89-.72-7.06-1.56-13.97-2.01-21.04-.27-4.27.3-9.93-1.15-13.86l-81.84,3.2c1.45,3.93.88,9.59,1.15,13.86.45,7.07,1.29,13.98,2.01,21.04.49,5.6,1.79,11.27,2.01,16.88l81.84-3.19Z"/><path class="cls-18" d="M323.74,316.13c.06,1.04-1.56,1.15-1.62.1-.48-8.64-2.05-17.29-2.96-25.9-.46-4.4-.91-8.8-1.11-13.22-.2-4.2.23-8.37-1.05-12.45-.31-1,1.22-1.53,1.54-.53,1.05,3.37,1.08,6.82,1.1,10.33.02,4.27.43,8.52.85,12.77.93,9.62,2.73,19.25,3.27,28.89Z"/><path class="cls-18" d="M334.18,316.13c.06,1.05-1.56,1.15-1.62.1-.48-8.64-2.05-17.29-2.96-25.9-.46-4.4-.91-8.8-1.11-13.22-.19-4.2.23-8.37-1.05-12.45-.31-1,1.23-1.53,1.54-.53,1.05,3.37,1.08,6.82,1.1,10.33.02,4.27.43,8.52.85,12.77.93,9.62,2.73,19.25,3.27,28.89Z"/><path class="cls-18" d="M344.67,316.82c.06,1.04-1.56,1.15-1.62.1-.48-8.64-2.06-17.29-2.96-25.9-.46-4.4-.91-8.8-1.11-13.22-.19-4.2.23-8.37-1.05-12.45-.31-1,1.22-1.53,1.53-.53,1.06,3.37,1.08,6.83,1.1,10.33.02,4.27.44,8.52.85,12.77.93,9.62,2.72,19.25,3.27,28.89Z"/><path class="cls-18" d="M355.12,316.97c.06,1.04-1.56,1.15-1.62.1-.48-8.64-2.06-17.29-2.96-25.9-.46-4.4-.91-8.8-1.11-13.22-.19-4.2.23-8.37-1.05-12.45-.31-1,1.22-1.53,1.53-.53,1.06,3.37,1.08,6.83,1.1,10.33.02,4.27.43,8.52.85,12.77.93,9.62,2.73,19.25,3.27,28.89Z"/><path class="cls-18" d="M365.56,317.02c.06,1.05-1.56,1.15-1.62.1-.48-8.64-2.06-17.29-2.96-25.9-.46-4.4-.91-8.8-1.11-13.22-.2-4.2.23-8.37-1.05-12.45-.32-.99,1.22-1.52,1.53-.53,1.06,3.37,1.08,6.83,1.1,10.33.02,4.27.44,8.52.85,12.77.93,9.62,2.73,19.25,3.27,28.89Z"/><path class="cls-18" d="M375.87,314.83c.06,1.04-1.56,1.15-1.62.1-.48-8.64-2.06-17.29-2.96-25.9-.46-4.4-.91-8.81-1.11-13.22-.19-4.2.23-8.37-1.05-12.45-.31-1,1.22-1.53,1.53-.53,1.06,3.37,1.08,6.83,1.1,10.33.02,4.27.43,8.52.85,12.77.93,9.62,2.73,19.25,3.27,28.89Z"/><path class="cls-18" d="M383,285.27c.93,9.62,2.73,19.25,3.27,28.9.06,1.04-1.56,1.15-1.62.1-.49-8.64-2.06-17.29-2.96-25.9-.46-4.4-.91-8.81-1.11-13.22-.2-4.2.23-8.37-1.05-12.45-.31-1,1.22-1.53,1.54-.53,1.06,3.37,1.08,6.83,1.1,10.33.02,4.27.43,8.52.85,12.77Z"/><path class="cls-18" d="M304.29,263.36c15.17.15,30.34-.14,45.5-.7,7.6-.28,15.17-.63,22.74-1.43,7.54-.8,15.05-1.8,22.62-2.28,2.04-.13,2.24,3.04.2,3.17-7.57.48-15.09,1.47-22.62,2.28-7.57.82-15.14,1.14-22.74,1.43-15.16.57-30.33.85-45.5.7-2.03-.02-2.25-3.19-.2-3.17h0Z"/><path class="cls-18" d="M387.38,260.75c-.52-2.93-2.41-5.53-5.63-5.48-3.57.06-4.75,3.89-4.58,6.82.03.49-.71.81-.97.33-1.22-2.35-3.45-6.17-6.42-6.27-3.33-.12-4.51,4.59-5.12,7.05-.09.38-.57.57-.87.29-2.16-1.99-3.85-4.48-6.46-5.93-4.77-2.65-7.65,1.96-8.12,6.11-.05.44-.74.58-.96.19-1.42-2.64-3.32-5.19-6.06-6.54-4.24-2.1-6.68,2.6-6.74,6.06-.01.62-.77.74-1.03.2-1.3-2.65-3.25-6.01-6.58-6.14-3.31-.13-4.8,4.15-5.26,6.73-.09.47-.7.54-.96.19-1.79-2.46-3.21-6.02-6.37-6.95-3.55-1.05-4.17,5.33-4.3,7.54-.04.67-1.09.75-1.05.07.17-2.95.59-7.37,3.79-8.6,3.56-1.38,6.33,3.52,8.12,6.33.71-2.74,2.32-5.98,5.32-6.28,3.5-.36,5.82,2.35,7.43,5.17.48-2.81,2.03-5.27,5.15-5.74,3.71-.55,6.82,3.1,8.69,6.14.64-3.02,2.27-5.77,5.6-6.24,4.21-.6,7.18,3.62,9.85,6.31.77-2.89,1.99-6.09,5.12-6.9,3.01-.77,5.59,2.4,7.18,5.03.35-2.89,1.91-5.39,5.11-5.95,3.95-.69,6.56,3.04,7.15,6.43.12.67-.94.73-1.05.06Z"/></g><path class="cls-18" d="M302.34,78.6s-.02.03-.04.08c0,.03-.02.09-.03.22-.03.24-.05.62-.06,1.11-.02.99-.02,2.47.02,4.4.08,3.86.27,9.51.64,16.71.33,7.2.94,15.92,1.58,25.94.7,10.01,1.48,21.3,2.34,33.62.86,12.32,1.67,25.67,2.52,39.79.85,14.12,1.59,29.02,2.63,44.42.53,7.69,1.04,15.53,1.93,23.4.24,1.96.45,3.96.88,5.85.06.23.12.46.2.64.02.03.04.1.05.11,0,.02.05.03-.1-.06,0,.02.21.07.3.1l1.43.46c.95.33,1.91.69,2.86.99.95.3,1.89.64,2.86.9l2.9.78c.97.26,1.96.41,2.94.62.99.17,1.97.43,2.97.51,3.99.55,8.03.77,12.08.68,2.02-.11,4.06-.15,6.08-.31,2.04-.19,4.04-.45,6.05-.8,4-.73,7.95-1.78,11.75-3.24,1.89-.73,3.75-1.56,5.53-2.52,1.77-.96,3.51-2.03,4.97-3.32.36-.32.7-.66.96-1,.14-.17.23-.34.27-.44.02.05,0-.28,0-.47l-.15-3.04-.37-6.15c-.27-4.1-.53-8.2-.8-12.29-.52-8.18-1.05-16.33-1.57-24.42-1.03-16.17-2.05-32.09-3.04-47.5-1.92-30.8-3.71-59.56-5.24-84.2-.21-3.07-.41-6.09-.6-9.03-.11-1.47-.22-2.92-.36-4.34l-.11-1.05c-.03-.32-.11-.74-.13-.87.02.06.06.12.11.16.07.05.24.18.1.08l-.21-.16-.42-.32c-.25-.12-.48-.23-.72-.36-2.4-.95-5.15-1.35-7.75-1.64-2.62-.28-5.19-.41-7.69-.48-4.99-.14-9.68-.02-14.01.19-4.33.2-8.3.54-11.87.95-7.15.79-12.72,1.88-16.4,2.98-1.84.54-3.22,1.08-4.07,1.56-.45.21-.74.44-.93.59-.2.14-.3.22-.3.22l.03-.03ZM302.11,78.4s.11-.08.32-.23c.21-.16.52-.4.97-.62.88-.5,2.27-1.06,4.12-1.62,3.71-1.13,9.28-2.24,16.43-3.21,7.15-.9,15.88-1.85,25.96-1.93,2.52,0,5.13.03,7.82.22,2.69.22,5.46.47,8.34,1.48.39.18.8.37,1.18.58l.43.31.22.15c-.05-.06.18.14.27.28.08.13.15.27.21.41.16.56.19.85.26,1.24l.16,1.09c.19,1.45.36,2.9.52,4.38.33,2.95.61,5.96.89,9.04,1.14,12.31,2.09,25.66,3.05,39.78.49,7.06.97,14.31,1.42,21.73.44,7.42.89,14.99,1.35,22.7.83,15.42,1.7,31.35,2.57,47.53.39,8.1.78,16.26,1.17,24.45.17,4.1.33,8.2.5,12.32l.22,6.17.08,3.14v.45c-.01.1,0,.05-.03.27-.03.11-.06.23-.1.34-.16.37-.35.64-.54.87-.38.47-.78.85-1.2,1.2-1.66,1.4-3.48,2.46-5.35,3.42-1.87.95-3.79,1.76-5.75,2.47-3.92,1.42-7.96,2.39-12.04,3.06-2.03.34-4.1.59-6.14.77-2.06.15-4.11.17-6.16.26-4.1.06-8.2-.2-12.24-.79-1.02-.09-2.01-.36-3.01-.54-.99-.21-2.01-.36-2.99-.62l-2.94-.77c-.98-.27-1.93-.6-2.9-.9-.97-.3-1.89-.64-2.83-.96l-1.43-.45c-.14-.05-.19-.05-.41-.14-.27-.15-.28-.24-.35-.33-.06-.1-.08-.15-.11-.23-.11-.28-.18-.53-.25-.79-.48-2.01-.72-3.98-.99-5.95-.98-7.9-1.75-15.71-2.48-23.4-.72-7.69-1.37-15.26-1.98-22.66-.63-7.41-1.17-14.66-1.66-21.72-.96-14.12-1.74-27.48-2.28-39.82-.55-12.34-.91-23.66-1.26-33.69-.31-10.03-.59-18.78-.81-25.98-.21-7.2-.39-12.86-.45-16.72-.06-3.88,0-5.89.19-5.99l.02-.03Z"/><path class="cls-13" d="M73.66,6.05c-1.24,1.13,17.69,270.15,20.25,270.74,2.57.6,10.81,4.73,25.5,3.36,14.68-1.36,22.88-7.51,23.12-9.11.24-1.6-18.85-267.46-20.1-268.65-4.65-4.4-43.7-.95-48.77,3.65Z"/><path class="cls-21" d="M120.16,236.84c6.68-.5,11.69-6.32,11.19-13L114.64.54c-6.58-.45-16.02.06-24.24,1.14l16.76,223.97c.5,6.68,6.32,11.69,13,11.19Z"/><path class="cls-20" d="M119.7,256.91c-13.31-19.58-22.61-43.83-28.1-67.12-2.88-10.33-5.56-20.64-7.99-30.96,4.52,61.27,9.12,117.7,10.3,117.97,2.57.6,10.81,4.73,25.5,3.36,8.31-.77,14.54-3.08,18.43-5.22-6.57-5.01-12.76-10.42-18.14-18.03Z"/><g class="cls-27"><path class="cls-15" d="M127.78,208.14c.16,2.19.25,5.58-.98,7.43-2.01,3.17-5.89,3.46-9.27,3.71.13,2.46.36,4.8.11,7.29-.27,2.27-1.42,4.99-4.49,5.22-3.07.23-4.62-2.29-5.22-4.49-.62-2.42-.74-4.77-.98-7.23-3.38.25-7.26.54-9.72-2.29-1.5-1.64-1.91-5.01-2.07-7.2-.16-2.19-.25-5.58.98-7.43,2.01-3.17,5.89-3.46,9.27-3.71-.13-2.46-.36-4.8-.1-7.29.27-2.27,1.42-4.99,4.49-5.22,3.07-.23,4.62,2.29,5.22,4.49.62,2.42.74,4.77.98,7.23,3.38-.25,7.26-.54,9.72,2.29,1.5,1.64,1.91,5.01,2.08,7.2Z"/><path class="cls-18" d="M112.33,203.01c-3.01.2-6.36,2.64-6.07,5.8.29,3.16,3.49,4.84,6.37,5.12,2.65.24,5.83-1.31,6.44-4.16.63-2.57-1.47-5.66-3.84-6.58-.74-.33-2.07-.25-2.89-.19Z"/><path class="cls-22" d="M116.94,197.46c.59-2.35,1.64-4.9,3.61-6.36,1.19-.91,5.24-1.87,4.46.88-.82,3.02-5.4,4.52-8.07,5.49Z"/><path class="cls-22" d="M104.27,198.41c-.93-2.24-2.35-4.6-4.52-5.76-1.32-.73-5.46-1.07-4.28,1.53,1.26,2.87,6.01,3.67,8.79,4.23Z"/><path class="cls-22" d="M118.65,220.31c.93,2.23,2.35,4.6,4.52,5.75,1.32.73,5.46,1.07,4.28-1.53-1.26-2.87-6.01-3.67-8.8-4.23Z"/><path class="cls-22" d="M105.98,221.26c-.59,2.35-1.64,4.9-3.61,6.36-1.19.91-5.24,1.88-4.46-.87.82-3.03,5.4-4.52,8.07-5.49Z"/><path class="cls-22" d="M137.59,116.16c.44,4.47.04,9.1.27,13.59.21,5.67.3,11.23.73,16.88.26,3.41,1.34,7.83.62,11.1l-65.16,6.49c.72-3.27-.36-7.69-.62-11.1-.42-5.65-.52-11.21-.73-16.88-.23-4.48.18-9.12-.27-13.59l65.16-6.48Z"/><path class="cls-18" d="M80.19,122.06c-.07-.83-1.36-.74-1.29.1.57,6.9.28,13.92.51,20.84.12,3.53.25,7.07.57,10.59.31,3.35,1.1,6.61.54,9.98-.14.82,1.14,1.07,1.27.25.46-2.79.1-5.52-.27-8.3-.45-3.39-.6-6.8-.74-10.2-.32-7.73.04-15.55-.6-23.24Z"/><path class="cls-18" d="M88.45,120.91c-.07-.83-1.36-.74-1.29.1.57,6.9.28,13.92.51,20.84.12,3.53.25,7.07.57,10.59.31,3.35,1.1,6.61.54,9.98-.14.82,1.14,1.07,1.27.25.46-2.79.1-5.52-.27-8.3-.45-3.39-.6-6.79-.74-10.2-.32-7.72.04-15.55-.6-23.24Z"/><path class="cls-18" d="M96.68,119.22c-.07-.84-1.36-.74-1.29.1.57,6.9.28,13.91.51,20.83.12,3.53.25,7.07.57,10.59.31,3.35,1.1,6.61.54,9.98-.14.82,1.14,1.07,1.27.25.47-2.79.11-5.52-.27-8.3-.45-3.39-.6-6.8-.74-10.2-.32-7.72.04-15.55-.6-23.24Z"/><path class="cls-18" d="M104.94,117.95c-.07-.83-1.36-.74-1.29.1.57,6.9.27,13.91.51,20.84.12,3.53.25,7.07.57,10.59.31,3.35,1.1,6.61.54,9.98-.14.82,1.14,1.07,1.27.25.46-2.78.1-5.52-.27-8.3-.45-3.39-.6-6.79-.74-10.21-.32-7.72.04-15.55-.6-23.24Z"/><path class="cls-18" d="M113.21,116.76c-.07-.83-1.36-.74-1.29.1.57,6.9.28,13.91.51,20.84.12,3.53.25,7.07.57,10.59.31,3.35,1.1,6.6.54,9.97-.14.83,1.14,1.08,1.27.25.46-2.79.1-5.52-.27-8.3-.45-3.39-.6-6.8-.74-10.21-.32-7.72.04-15.55-.6-23.24Z"/><path class="cls-18" d="M121.61,117.35c-.07-.84-1.36-.74-1.29.1.57,6.9.28,13.91.51,20.84.12,3.53.25,7.07.57,10.59.31,3.35,1.1,6.61.54,9.98-.14.82,1.13,1.07,1.27.25.46-2.79.1-5.52-.27-8.3-.45-3.39-.6-6.79-.74-10.21-.32-7.72.04-15.55-.6-23.24Z"/><path class="cls-18" d="M130.51,139.97c-.32-7.72.04-15.55-.6-23.24-.07-.84-1.36-.74-1.29.1.57,6.9.28,13.91.51,20.83.12,3.53.25,7.07.57,10.59.31,3.35,1.1,6.61.54,9.98-.14.82,1.14,1.07,1.27.25.47-2.79.1-5.52-.27-8.3-.45-3.39-.59-6.8-.74-10.21Z"/><path class="cls-18" d="M106.51,220.57c.38,4.44.66,11.88,6.66,11.69,5.96-.19,5.11-8.45,4.85-12.55,2.99-.24,6.03-.62,8.29-2.78,2.31-2.2,2.13-5.91,1.93-8.82-.24-3.08-.68-6.38-3.22-8.44-2.36-1.91-5.74-1.73-8.62-1.51-.38-4.44-.66-11.88-6.66-11.69-5.96.19-5.11,8.45-4.85,12.55-2.99.23-6.03.62-8.29,2.78-2.31,2.2-2.14,5.91-1.93,8.83.22,3.07.7,6.39,3.22,8.44,2.36,1.91,5.74,1.73,8.62,1.52ZM97.31,202.4c1.97-2.16,5.42-2.29,8.12-2.49.26-.02.45-.25.43-.5-.21-3.76-1.49-11.37,3.96-12.01,5.42-.64,5.38,7.93,5.7,11.29.02.25.24.45.5.43,2.85-.21,5.94-.47,8.4,1.26,2.4,1.69,2.69,5.13,2.9,7.8.2,2.83.32,5.92-1.71,8.15-1.97,2.16-5.42,2.29-8.12,2.49-.26.02-.45.25-.43.5.21,3.76,1.49,11.37-3.96,12.01-5.42.64-5.38-7.93-5.7-11.29-.02-.25-.24-.45-.5-.43-2.85.21-5.94.47-8.4-1.26-2.4-1.69-2.69-5.12-2.9-7.8-.22-2.82-.31-5.94,1.71-8.15Z"/><path class="cls-18" d="M113.04,214.43c3.38.2,6.61-2.42,6.6-5.86,0-1.79-1.16-3.48-2.42-4.65-1.42-1.32-3.08-1.47-4.93-1.36-3.3.32-6.65,2.71-6.5,6.3.16,3.58,4.17,5.39,7.25,5.57ZM112.36,203.48c1.49-.09,2.68-.03,3.93.87,1.25.91,2.11,2.38,2.38,3.88.55,3.12-2.63,5.09-5.31,5.26-2.65.17-5.68-1.43-6.51-4.01-1.07-3.31,2.73-5.74,5.51-6.01Z"/><path class="cls-18" d="M116.69,197.85c.1.08.24.11.4.05,2.31-.83,4.69-1.65,6.61-3.23.95-.78,2.87-3.3,1.41-4.48-1.25-1-3.21-.36-4.47.29-2.41,1.24-3.52,4.45-4.16,6.88-.06.23.05.39.21.48ZM120.21,192c.91-.95,2.74-1.72,4.05-1.26.99.35-.08,2.01-.41,2.46-.58.77-1.45,1.32-2.27,1.81-1.23.73-2.6,1.23-3.95,1.71.53-1.74,1.29-3.38,2.57-4.72Z"/><path class="cls-18" d="M97.06,196.59c2.07,1.39,4.72,1.8,7.11,2.28.17.04.3-.02.39-.11.15-.11.23-.28.14-.5-1.04-2.42-2.48-4.89-4.93-6.1-1.14-.56-3.55-.92-4.53.14-1.36,1.47.63,3.5,1.82,4.3ZM95.74,193.21c.13-1.22,3.21-.42,3.8-.14,1.85.92,3.06,2.85,3.93,4.7-1.27-.26-2.54-.54-3.78-.96-1.41-.48-4.15-1.72-3.95-3.6Z"/><path class="cls-18" d="M125.85,222.13c-2.07-1.39-4.72-1.8-7.11-2.28-.17-.03-.3.02-.39.11-.15.11-.23.28-.14.5,1.04,2.42,2.48,4.89,4.93,6.1,1.14.56,3.55.92,4.53-.14,1.36-1.47-.63-3.5-1.82-4.3ZM127.17,225.52c-.13,1.21-3.2.43-3.8.13-1.85-.92-3.06-2.84-3.93-4.7,1.28.26,2.55.54,3.78.96,1.41.48,4.15,1.72,3.95,3.6Z"/><path class="cls-18" d="M105.82,220.82c-2.31.83-4.69,1.65-6.61,3.23-.94.78-2.88,3.3-1.41,4.47,1.25,1,3.21.36,4.47-.29,2.4-1.24,3.52-4.45,4.16-6.88.06-.23-.05-.39-.21-.48-.11-.08-.24-.11-.4-.05ZM102.71,226.72c-.91.95-2.75,1.72-4.05,1.26-.99-.35.08-2.01.41-2.46.58-.77,1.45-1.32,2.27-1.81,1.23-.73,2.59-1.23,3.94-1.71-.53,1.74-1.29,3.37-2.57,4.72Z"/><path class="cls-22" d="M113.53,260.41c1.31-2.84,1.66-6.15,1.54-9.33-.13-3.62-3.74-6.14-5.19-2.74-1.64,3.7,1.75,8.93,3.65,12.07Z"/><path class="cls-22" d="M114.88,261.33c3.12.17,6.33-.74,9.23-2.03,3.31-1.47,4.32-5.75.62-5.83-4.05-.15-7.64,4.93-9.86,7.86Z"/><path class="cls-22" d="M112.11,261.54c-3.07.63-6.37.21-9.43-.63-3.49-.96-5.12-5.05-1.49-5.68,3.98-.75,8.29,3.74,10.92,6.31Z"/><path class="cls-18" d="M111.41,246.32c-2.49.61-2.61,3.98-2.22,5.99.59,3.03,2.39,5.77,3.96,8.36.12.2.3.24.47.19.14-.02.26-.08.33-.25,1.38-3.14,2.02-7.03,1.48-10.45-.27-1.72-1.93-4.37-4.03-3.85ZM114.62,251.65c.08,2.63-.25,5.27-1.18,7.73-2.01-3.25-4.74-7.54-2.95-11.23.75-1.55,2.28-.86,3.11.12.8.95.98,2.18,1.02,3.37Z"/><path class="cls-18" d="M114.97,261.79c3.44.1,7.54-.75,10.42-2.69,1.55-1.04,2.88-3.36,1.69-5.11-1.29-1.92-4.48-.78-6,.1-2.72,1.57-4.65,4.39-6.51,6.86-.08.06-.13.15-.14.25,0,.02,0,.03,0,.05,0,.02,0,.05,0,.08.01.28.28.51.54.46ZM125.87,254.18c1.03.43.78,1.7.43,2.49-.54,1.21-1.7,1.92-2.86,2.42-2.43,1.05-5,1.72-7.64,1.78,2.25-3.06,6.09-8.36,10.07-6.69Z"/><path class="cls-18" d="M105.28,255.48c-1.64-.82-5.29-1.57-6.34.62-.89,1.86.62,3.64,2.11,4.61,1.37.9,3.27,1.1,4.84,1.36,2.05.32,4.15.31,6.19-.06.26,0,.49-.26.46-.54,0-.03,0-.05-.01-.08,0-.01,0-.03-.01-.05-.03-.1-.09-.18-.18-.23-2.16-2.11-4.33-4.27-7.06-5.64ZM103.31,260.59c-1.43-.35-5.36-2.69-3.14-4.49,1.96-1.59,5.23.37,6.86,1.52,1.48,1.05,2.79,2.32,4.08,3.59-2.62.32-5.23,0-7.81-.62Z"/><path class="cls-18" d="M148.02,262.07c-4.73,6.17-17.59,9.42-24.94,11.22-12.66,3.03-26.43,2.39-38.61-2.1l-.38-5.08c12.18,4.49,25.95,5.13,38.61,2.1,7.35-1.8,20.2-5.05,24.94-11.22l.38,5.08Z"/><path class="cls-18" d="M147.28,256.68c-2.84,3.59-7.32,5.6-11.5,7.19-4.3,1.65-8.78,2.8-13.24,3.89-12.55,3.07-26.12,2.33-38.25-2.08-.32-.12-.7.07-.67.45.13,1.69.25,3.39.38,5.08.01.15.11.33.26.39,12.12,4.41,25.32,5.1,37.9,2.36,4.84-1.05,9.68-2.4,14.32-4.14,4.32-1.62,8.96-3.76,11.89-7.46,0,0,0-.01,0-.02.04-.05.07-.1.08-.16t0,0s.02-.1.02-.15c-.13-1.69-.25-3.39-.38-5.08-.03-.39-.56-.59-.82-.27ZM133.68,269.85c-5.71,1.94-11.71,3.47-17.68,4.27-7.46,1-15.08.68-22.45-.82-1.8-.36-3.58-.83-5.34-1.35-1.02-.3-2.02-.64-3.02-.99-.32-.11-.25.33-.29-.33-.1-1.29-.19-2.57-.29-3.85,11.93,4.18,24.85,4.8,37.18,2.12,4.84-1.05,9.68-2.4,14.32-4.14,3.98-1.49,8.22-3.43,11.16-6.61.09,1.26.19,2.51.28,3.77-3.38,4.16-8.93,6.26-13.86,7.93Z"/><path class="cls-15" d="M118.13,79.2c-.16-2.19-.58-5.56-2.07-7.2-2.46-2.83-6.34-2.54-9.72-2.29-.24-2.45-.36-4.8-.98-7.23-.6-2.21-2.15-4.73-5.22-4.5-3.07.23-4.22,2.95-4.49,5.22-.25,2.49-.02,4.83.11,7.29-3.38.25-7.26.54-9.27,3.71-1.23,1.85-1.14,5.24-.98,7.43.16,2.19.58,5.56,2.07,7.2,2.46,2.84,6.34,2.55,9.72,2.29.24,2.45.36,4.8.98,7.23.6,2.21,2.15,4.73,5.22,4.49,3.07-.23,4.23-2.95,4.49-5.22.25-2.49.02-4.83-.11-7.29,3.38-.25,7.26-.54,9.27-3.71,1.24-1.85,1.15-5.24.98-7.43Z"/><path class="cls-18" d="M103.62,86.57c-3,.25-6.68-1.67-6.87-4.84-.18-3.17,2.73-5.31,5.53-6.01,2.59-.63,5.96.43,6.99,3.15,1.01,2.45-.61,5.81-2.82,7.07-.68.44-2.01.55-2.83.62Z"/><path class="cls-22" d="M109,91.38c.93,2.24,2.35,4.6,4.52,5.75,1.32.73,5.46,1.07,4.28-1.53-1.26-2.87-6.01-3.67-8.8-4.23Z"/><path class="cls-22" d="M96.33,92.32c-.59,2.35-1.64,4.9-3.61,6.36-1.19.91-5.24,1.88-4.46-.87.82-3.02,5.4-4.52,8.07-5.49Z"/><path class="cls-22" d="M107.29,68.52c.59-2.35,1.64-4.9,3.61-6.36,1.19-.91,5.24-1.88,4.46.87-.82,3.03-5.4,4.52-8.07,5.49Z"/><path class="cls-22" d="M94.62,69.47c-.93-2.24-2.35-4.6-4.52-5.75-1.32-.73-5.46-1.07-4.28,1.53,1.26,2.87,6.01,3.66,8.8,4.23Z"/><path class="cls-18" d="M86.96,72.85c-2.19,2.4-2.17,5.75-1.93,8.83.23,2.91.61,6.6,3.22,8.44,2.56,1.8,5.62,1.73,8.61,1.51.35,4.1.74,12.39,6.66,11.69,5.96-.71,5.13-8.1,4.85-12.55,2.88-.22,6.25-.54,8.29-2.78,2.21-2.41,2.15-5.74,1.93-8.83-.23-2.91-.61-6.61-3.22-8.44-2.56-1.8-5.63-1.73-8.62-1.51-.35-4.1-.73-12.39-6.66-11.69-5.96.71-5.13,8.1-4.85,12.55-2.88.22-6.25.54-8.29,2.78ZM85.96,81.61c-.19-2.68-.42-6.12,1.71-8.15,2.18-2.07,5.27-2.28,8.11-2.49.26-.02.44-.25.43-.5-.19-3.38-1.5-11.84,3.96-12.01,5.48-.17,5.35,7.55,5.7,11.29.02.25.24.45.5.43,2.7-.2,6.13-.58,8.4,1.26,2.34,1.9,2.68,4.98,2.9,7.8.19,2.68.42,6.12-1.71,8.15-2.18,2.08-5.27,2.28-8.12,2.49-.26.02-.45.25-.43.5.19,3.38,1.5,11.84-3.96,12.01-5.49.17-5.35-7.54-5.7-11.29-.02-.25-.24-.45-.5-.43-2.7.2-6.13.58-8.4-1.26-2.32-1.89-2.7-4.99-2.9-7.8Z"/><path class="cls-18" d="M96.28,81.77c.38,3.57,4.06,5.44,7.37,5.27,1.84-.16,3.47-.56,4.67-2.08,1.07-1.35,1.96-3.19,1.7-4.96-.5-3.41-4.08-5.51-7.4-4.82-3.02.64-6.72,3.03-6.34,6.59ZM97.23,80.99c.44-2.68,3.2-4.71,5.84-4.93,2.67-.23,6.12,1.25,6.03,4.41-.04,1.53-.67,3.11-1.77,4.19-1.1,1.07-2.27,1.32-3.76,1.45-2.79.15-6.91-1.69-6.35-5.12Z"/><path class="cls-18" d="M108.56,91.53c.99,2.31,2.57,5.32,5.14,6.19,1.35.46,3.38.8,4.47-.38,1.27-1.38-1.01-3.59-2.06-4.21-2.13-1.28-4.61-1.73-7.01-2.21-.17-.03-.3.02-.39.11-.15.1-.23.28-.14.5ZM109.8,92.01c1.41.28,2.83.57,4.16,1.1.89.36,1.82.77,2.51,1.45.4.39,1.7,1.87.77,2.37-1.23.65-3.15.16-4.2-.64-1.47-1.13-2.46-2.63-3.25-4.28Z"/><path class="cls-18" d="M88.31,99.72c1.13.9,3.46.2,4.51-.53,2.24-1.56,3.3-4.23,3.97-6.77.06-.23-.05-.4-.21-.48-.11-.08-.24-.11-.4-.05-2.3.83-4.86,1.63-6.7,3.31-1.06.97-2.73,3.27-1.17,4.52ZM92.04,94.58c1.16-.6,2.37-1.07,3.6-1.51-.58,1.96-1.49,4.05-3.18,5.23-.54.38-3.46,1.62-3.78.43-.48-1.83,2.04-3.47,3.37-4.15Z"/><path class="cls-18" d="M115.31,61.13c-1.13-.9-3.46-.19-4.51.53-2.24,1.56-3.3,4.22-3.97,6.77-.06.23.05.4.21.48.1.08.24.11.4.05,2.3-.83,4.86-1.63,6.7-3.31,1.06-.97,2.73-3.27,1.17-4.52ZM111.58,66.26c-1.16.6-2.37,1.07-3.6,1.52.59-1.96,1.49-4.05,3.19-5.23.55-.38,3.46-1.62,3.77-.44.48,1.83-2.04,3.47-3.36,4.15Z"/><path class="cls-18" d="M94.92,69.82c.15-.1.23-.28.14-.5-.99-2.3-2.57-5.31-5.14-6.19-1.35-.46-3.38-.8-4.47.38-1.27,1.38,1.01,3.58,2.06,4.21,2.13,1.28,4.61,1.73,7.01,2.21.17.03.3-.02.39-.11ZM93.82,68.84c-1.41-.28-2.83-.57-4.15-1.1-.89-.36-1.82-.77-2.51-1.45-.4-.39-1.7-1.87-.77-2.37,1.22-.65,3.16-.16,4.2.64,1.47,1.14,2.46,2.64,3.25,4.28Z"/><path class="cls-22" d="M96.04,26.52c1.72,2.62,2.55,5.84,2.91,9,.4,3.6-2.78,6.63-4.72,3.49-2.17-3.42.4-9.09,1.81-12.48Z"/><path class="cls-22" d="M97.23,25.41c3.07-.63,6.37-.21,9.43.63,3.49.96,5.12,5.04,1.49,5.68-3.98.75-8.29-3.74-10.92-6.31Z"/><path class="cls-22" d="M94.46,25.62c-3.12-.17-6.33.74-9.23,2.03-3.31,1.47-4.32,5.75-.62,5.84,4.05.15,7.64-4.94,9.86-7.86Z"/><path class="cls-18" d="M99.44,36.37c.02-3.46-1.19-7.21-3.02-10.11-.1-.15-.23-.2-.37-.2-.17-.02-.35.05-.44.26-1.17,2.8-2.55,5.78-2.68,8.86-.08,2.05.54,5.36,3.09,5.6,2.15.2,3.4-2.67,3.41-4.41ZM97.91,38.51c-.67,1.1-2.08,2-3.06.59-2.32-3.38-.26-8.04,1.25-11.54,1.28,2.3,2,4.86,2.32,7.47.14,1.18.15,2.43-.5,3.49Z"/><path class="cls-18" d="M96.79,25.47s0,.05.01.08c0,.02,0,.03.01.05.03.1.09.18.18.23,2.2,2.16,4.53,4.66,7.45,5.81,1.63.65,4.96,1.3,5.95-.79.91-1.9-.75-4-2.44-4.8-3.14-1.49-7.32-1.73-10.71-1.11-.26,0-.49.26-.46.54ZM98.21,25.73c2.62-.33,5.26-.05,7.82.62,1.22.32,2.48.85,3.19,1.97.46.72.9,1.94-.05,2.52-3.68,2.24-8.27-2.42-10.95-5.11Z"/><path class="cls-18" d="M94.75,26c.08-.06.13-.15.14-.25,0-.02,0-.03,0-.05,0-.03,0-.05,0-.08-.01-.28-.28-.51-.54-.46-2.07-.06-4.15.24-6.12.86-1.52.48-3.37.97-4.59,2.06-1.33,1.18-2.55,3.17-1.4,4.88,1.36,2.01,4.85.72,6.36-.33,2.5-1.75,4.33-4.22,6.15-6.63ZM93.52,26.08c-1.09,1.45-2.19,2.9-3.5,4.16-1.44,1.38-4.39,3.81-6.56,2.53-2.47-1.45,1.07-4.35,2.43-4.91,2.46-1.01,4.98-1.71,7.63-1.78Z"/><path class="cls-18" d="M129.89,19.75c-5.6-5.4-18.8-6.7-26.33-7.39-12.97-1.11-26.49,1.57-37.87,7.82l.38,5.08c11.38-6.26,24.9-8.93,37.87-7.82,7.53.68,20.73,1.98,26.33,7.38l-.38-5.08Z"/><path class="cls-18" d="M130.73,24.8l-.38-5.08c0-.06-.02-.1-.04-.15,0,0,0,0,0,0-.02-.06-.06-.11-.1-.15,0,0,0-.01-.01-.02-3.45-3.22-8.36-4.65-12.87-5.61-4.85-1.03-9.83-1.64-14.77-1.96-12.85-.83-25.8,1.82-37.13,7.98-.14.08-.21.27-.2.42.13,1.69.25,3.39.38,5.08.03.38.43.51.73.35,11.34-6.17,24.65-8.92,37.52-7.75,4.58.41,9.18.89,13.67,1.88,4.37.96,9.1,2.27,12.44,5.4.3.28.8,0,.77-.39ZM129.44,19.98c.1,1.26.19,2.51.28,3.77-3.38-2.71-7.86-4-12.02-4.88-4.85-1.03-9.83-1.64-14.77-1.96-12.6-.82-25.28,1.72-36.45,7.63-.1-1.28-.19-2.57-.29-3.85-.05-.66-.06-.21.24-.37.93-.5,1.88-.98,2.84-1.43,1.66-.78,3.35-1.5,5.08-2.13,7.07-2.58,14.55-4.03,22.08-4.15,6.03-.1,12.19.53,18.12,1.59,5.12.92,10.92,2.17,14.89,5.78Z"/><path class="cls-11" d="M153.72,151.82c-6.98,6.34-25.49,10.02-36.07,12.05-18.23,3.44-37.93,3.25-55.23-.86l-.38-5.08c17.3,4.11,37,4.3,55.23.86,10.58-2.04,29.1-5.71,36.07-12.05l.38,5.08Z"/><path class="cls-18" d="M152.85,146.45c-4.19,3.69-10.67,5.85-16.7,7.59-6.21,1.79-12.66,3.09-19.09,4.33-18.06,3.48-37.48,3.18-54.71-.85-.46-.11-1,.1-.97.48.13,1.7.25,3.39.38,5.08.01.15.15.32.36.38,17.22,4.03,36.1,4.3,54.2,1.15,6.97-1.21,13.93-2.72,20.63-4.61,6.24-1.76,12.96-4.06,17.27-7.87,0,0,0-.01.02-.02.05-.05.1-.1.12-.16t0,0s.04-.1.03-.15c-.13-1.7-.25-3.39-.38-5.08-.03-.4-.78-.58-1.16-.25ZM132.94,160.08c-8.24,2.13-16.88,3.86-25.46,4.85-10.72,1.24-21.62,1.17-32.13-.1-2.57-.31-5.1-.72-7.6-1.18-1.44-.27-2.87-.57-4.29-.9-.46-.1-.36.34-.41-.32-.1-1.29-.19-2.57-.29-3.85,16.94,3.8,35.43,4.01,53.18.92,6.97-1.21,13.93-2.72,20.63-4.61,5.74-1.62,11.88-3.7,16.19-6.99.1,1.26.19,2.51.28,3.77-4.98,4.28-13,6.57-20.11,8.4Z"/><path class="cls-11" d="M151.25,119.33c-8.43-4.76-27.37-4.58-38.18-4.42-18.6.34-37.68,4.51-53.42,12.02l.96,5.02c15.74-7.51,34.81-11.68,53.42-12.02,10.81-.16,29.75-.33,38.18,4.43l-.96-5.02Z"/><path class="cls-18" d="M151.92,119.31c.01-.12-.05-.24-.23-.34-5.05-2.76-11.85-3.63-18.19-4.13-7-.56-14.16-.53-21.25-.38-18.52.39-37.24,4.65-52.97,12.09-.19.09-.33.27-.3.43.32,1.68.64,3.35.96,5.02.07.35.58.54,1.03.33,15.41-7.29,33.43-11.31,51.53-11.9,6.81-.22,13.68-.17,20.42.26,6.48.42,13.67,1.21,18.83,4.02.41.23,1.19.01,1.11-.41-.32-1.66-.63-3.33-.95-4.99ZM113.21,119.48c-18.17.39-36.53,4.51-52.08,11.69-.24-1.26-.48-2.51-.72-3.77-.11-.6-.1-.24.26-.4,1.1-.52,2.22-1.01,3.35-1.5,2.43-1.05,4.95-2,7.5-2.89,9.7-3.38,20.15-5.55,30.71-6.61,8.6-.86,17.44-.87,26.01-.53,7.56.29,16.31.9,22.4,4.13.24,1.24.47,2.49.71,3.73-4.88-2.25-11.07-3.02-16.88-3.48-7-.56-14.16-.53-21.24-.38Z"/></g><path class="cls-18" d="M73.79,6.12s-.03.05-.02.1c0,.04,0,.13-.01.29,0,.3,0,.76,0,1.37.03,1.21.11,3.01.22,5.36.24,4.7.63,11.59,1.25,20.34.58,8.76,1.46,19.39,2.42,31.58,1,12.19,2.12,25.94,3.35,40.95,1.21,15,2.39,31.27,3.61,48.47,1.14,17.21,2.35,35.36,3.6,54.13.65,9.39,1.27,18.93,2.07,28.58.79,9.65,1.54,19.42,2.58,29.24.27,2.45.54,4.91.9,7.35.09.61.18,1.22.3,1.81.05.28.14.63.2.77.08.05-.39-.27-.14-.11l.22.07.45.13c1.19.36,2.39.8,3.56,1.14,4.71,1.45,9.64,2.17,14.59,2.16,1.24.08,2.47-.06,3.71-.12l1.85-.11c.3-.02.63-.03.91-.06l.93-.11c2.5-.27,4.88-.75,7.3-1.36,2.39-.62,4.74-1.4,6.99-2.41,1.12-.51,2.22-1.05,3.27-1.68,1.05-.61,2.07-1.3,2.92-2.08.23-.19.39-.4.58-.59l.2-.28c.05-.06.02-.06.03-.08,0,.02.03-.08.02.04,0-.34-.03-.55-.04-.85l-.06-.93-.27-3.75-.58-7.5c-.4-5-.79-9.99-1.18-14.97-.77-9.97-1.54-19.89-2.3-29.74-1.5-19.7-2.97-39.09-4.4-57.85-.7-9.38-1.39-18.61-2.07-27.63-.65-9.03-1.3-17.87-1.92-26.47-.61-8.6-1.2-16.97-1.77-25.06-.55-8.1-1.07-15.92-1.58-23.43-1.02-15.02-1.82-28.79-2.74-40.98-.24-3.04-.44-6.02-.77-8.8l-.04-.25s.03.05.08.03l-.36-.27c-.29-.19-.51-.27-.81-.4-.62-.23-1.26-.41-1.92-.55-1.31-.29-2.65-.43-3.95-.56-5.24-.44-10.11-.29-14.48-.04-8.75.51-15.59,1.58-20.15,2.66-2.28.54-3.99,1.1-5.08,1.61-.54.26-.95.47-1.17.65-.24.18-.36.27-.36.27l.03-.04ZM73.56,5.94s.13-.1.39-.29c.25-.21.67-.42,1.22-.69,1.11-.53,2.84-1.1,5.13-1.66,4.58-1.11,11.43-2.21,20.19-2.89,2.19-.17,4.51-.29,6.94-.35,2.43-.07,4.98-.08,7.65.07,1.33.1,2.69.21,4.08.47.69.14,1.39.3,2.1.55.35.13.78.33,1.08.52l.22.15.11.08c.06.05.02,0,.16.13.1.15.2.4.23.54l.05.28c.43,2.89.7,5.81,1.03,8.86,1.23,12.18,2.57,25.91,3.88,40.91.64,7.5,1.31,15.31,2,23.4.69,8.09,1.3,16.45,1.98,25.05.65,8.6,1.32,17.43,2,26.46.65,9.03,1.3,18.26,1.98,27.65,1.28,18.77,2.6,38.17,3.94,57.89.63,9.86,1.26,19.8,1.9,29.77.29,4.99.59,9.99.88,15l.43,7.51.2,3.76.04.95c.01.33.03.74.03,1.03-.04.27-.08.31-.14.48-.05.13-.12.28-.17.34l-.36.48c-.25.25-.49.53-.75.73-1.02.89-2.11,1.59-3.24,2.22-1.12.65-2.28,1.19-3.45,1.7-2.35,1-4.79,1.77-7.26,2.36-2.45.58-5.01,1.04-7.49,1.26l-.93.1c-.34.03-.64.03-.96.05l-1.89.08c-1.26.04-2.52.15-3.78.06-5.04-.02-10.09-.79-14.88-2.3-1.22-.36-2.35-.78-3.53-1.15l-.44-.14-.22-.07c.11.12-.51-.28-.48-.39-.18-.43-.21-.7-.28-1.03-.12-.63-.21-1.24-.3-1.86-.34-2.47-.6-4.93-.85-7.39-2.03-19.67-3.59-39.05-5.34-57.79-1.66-18.74-3.29-36.86-4.61-54.06-1.32-17.2-2.47-33.47-3.36-48.5-.91-15.03-1.61-28.81-2.27-41.03-.64-12.21-1.19-22.87-1.65-31.63-.46-8.77-.82-15.66-1.06-20.36-.21-4.72-.28-7.16-.13-7.28l.03-.04Z"/><path class="cls-7" d="M199.95,67.1c-1.47,1.44-2.8,204.89,0,206,2.8,1.1,11.58,7.7,27.96,7.33,16.38-.36,25.96-8.06,26.36-10.26.4-2.2,1.29-201.29,0-203.06-4.79-6.6-48.33-5.86-54.33,0Z"/><path class="cls-21" d="M226.42,214.15c7.63,0,13.81-6.19,13.81-13.81V62.94c-8.55-.83-19.28-.65-27.62.43v136.97c0,7.62,6.18,13.81,13.81,13.81Z"/><path class="cls-10" d="M198.98,97c-.9,56.92-1.16,175.25.97,176.09,2.8,1.1,11.58,7.7,27.96,7.33,11.85-.26,20.12-4.36,23.95-7.45-21.07-25.22-35.83-51.61-42.86-87.65-5.25-27.82-8.89-57.92-10.02-88.32Z"/><g class="cls-26"><path class="cls-22" d="M205.33,257.37c0,12.32,41.85,9.55,41.85,0,0-9.55-41.85-12.32-41.85,0Z"/><path class="cls-14" d="M225.75,173.36c1.17-2.86,8.63-25.05,13.95-16.1,4.02,6.75-9.15,13.76-13.95,16.1Z"/><path class="cls-14" d="M226.63,203.4c.49-3.46,2.56-29.94,10.9-21.56,6.29,6.31-6.26,17.66-10.9,21.56Z"/><path class="cls-14" d="M225.12,176.76c-.64-3.32-3.88-28.75-11.52-20.28-5.77,6.38,6.87,16.74,11.52,20.28Z"/><path class="cls-14" d="M225.78,144.68c.82-2,6.04-17.54,9.77-11.27,2.82,4.72-6.41,9.63-9.77,11.27Z"/><path class="cls-14" d="M224.84,124.42c.73-1.79,5.42-15.73,8.76-10.1,2.52,4.24-5.74,8.64-8.76,10.1Z"/><path class="cls-14" d="M224.84,127.87c-.39-1.9-2.43-16.45-6.75-11.54-3.26,3.7,4.06,9.55,6.75,11.54Z"/><path class="cls-14" d="M226.21,146.2c-.88-2.45-6.4-21.48-11.22-14.1-3.64,5.56,7.24,11.96,11.22,14.1Z"/><path class="cls-14" d="M226.21,200.2c-.88-2.46-6.4-21.48-11.22-14.1-3.64,5.56,7.24,11.96,11.22,14.1Z"/><path class="cls-18" d="M226.05,173.88c4.98-2.44,10.37-5.37,13.64-9.99,1.98-2.8,1.8-8.55-2.39-9.3-3.47-.62-6.1,4.91-7.33,7.24-1.51,2.87-2.67,5.88-3.84,8.89.45-7.92,1.05-15.83.58-23.76,0-.13-.02-.27-.03-.4.09-.11.14-.25.11-.43,0-.05-.02-.1-.03-.15-.05-.13-.09-.26-.14-.39-.01-.21-.03-.43-.04-.64,3.38-1.68,6.91-3.71,9.12-6.82,1.47-2.08,1.22-6.03-1.7-6.74-2.46-.6-4.37,3.18-5.25,4.82-.94,1.74-1.69,3.55-2.4,5.38-.43-5.6-.92-11.19-.88-16.81,3.08-1.52,6.32-3.36,8.33-6.21,1.34-1.9,1.09-5.49-1.57-6.14-2.24-.55-3.97,2.85-4.78,4.36-.78,1.44-1.41,2.95-2.01,4.46-.28-.39-1.06-.27-1.09.35-.01.26-.01.51-.02.77-.2-.87-.42-1.73-.68-2.58-.57-1.83-1.55-4.93-3.88-5.06-2.92-.16-3.39,3.91-2.62,5.82,1.29,3.2,4.46,5.65,7.16,7.68.12,4.36.48,8.71.82,13.06-.59-1.66-1.22-3.3-1.95-4.92-.95-2.09-3.08-7-6.13-6.52-3.5.55-3.81,5.04-2.56,7.56,2.05,4.12,7.05,6.94,11,9.1.46,8.16-.08,16.28-.56,24.43-.02.38-.03.76-.05,1.13-.5-2.75-1.02-5.48-1.77-8.19-.79-2.89-2.34-9.2-6.1-9.67-4.9-.6-6.06,6.02-4.77,9.36,2.16,5.62,7.73,10.01,12.39,13.57.03.04.06.07.1.1-.05,6.31.31,12.59.7,18.88-.68-1.94-1.4-3.87-2.25-5.75-.95-2.09-3.08-7-6.13-6.52-3.5.55-3.81,5.04-2.56,7.56,2.09,4.19,7.23,7.05,11.21,9.21.39,6.52.71,13.05.52,19.61-.02.77,1.18.77,1.2,0,.16-5.48-.04-10.95-.33-16.4.02-.02.04-.04.05-.06,4.71-3.99,9.67-8.59,12.04-14.41,1.45-3.55-.17-10.27-5.14-9.69-3.88.46-5.18,7.02-5.88,9.94-.66,2.74-1.06,5.51-1.42,8.29-.49-7.98-1-15.96-.75-23.98.02,0,.04,0,.05-.02ZM232.48,133.03c1.03-.92,1.9-.33,2.54.68,1.19,1.86-.23,3.84-1.51,5.18-1.83,1.92-4.24,3.34-6.63,4.56,1.36-3.65,2.71-7.86,5.6-10.42ZM214.2,164.82c-1.53-2.51-2.18-5.49-.18-7.92,1.27-1.54,2.91-2.05,4.39-.57,2.69,2.66,3.54,7.55,4.35,11.08.61,2.62,1.03,5.27,1.49,7.92-3.82-3-7.53-6.36-10.06-10.51ZM217.24,193.08c-1.59-1.63-2.99-3.89-2.01-6.19.66-1.56,2.07-2.4,3.48-1.27,2.33,1.87,3.58,5.51,4.63,8.18.66,1.68,1.22,3.39,1.8,5.09-2.85-1.63-5.6-3.46-7.9-5.82ZM228.47,194.21c.67-4,1.4-8.96,4-12.23,1.28-1.61,2.86-1.28,4.29-.06,2.76,2.37,1.98,5.84.54,8.69-2.24,4.41-6.1,8.08-9.87,11.32.33-2.58.61-5.16,1.04-7.73ZM229.52,165.54c1.42-3.19,3.14-7.36,6.15-9.38,1.86-1.25,3.32.75,3.95,2.33.99,2.46-.93,4.96-2.5,6.64-2.8,2.99-6.57,5.14-10.25,7,.86-2.21,1.69-4.42,2.65-6.59ZM230.9,114.01c.89-.79,1.63-.27,2.18.6,1.05,1.65-.22,3.39-1.34,4.57-1.6,1.68-3.7,2.93-5.79,4.01,1.2-3.23,2.4-6.91,4.95-9.17ZM218.96,121.37c-.96-1.39-1.6-3.14-.45-4.62.85-1.09,1.77-.94,2.52.09,1.91,2.62,2.39,6.33,2.94,9.6-1.87-1.48-3.65-3.11-5.01-5.08ZM217.24,139.08c-1.59-1.63-2.99-3.89-2.01-6.19.66-1.56,2.07-2.4,3.48-1.26,2.33,1.87,3.58,5.51,4.63,8.18.66,1.68,1.22,3.39,1.8,5.09-2.85-1.63-5.6-3.46-7.9-5.82Z"/><path class="cls-18" d="M237.27,265.19c3.02-.71,6.77-1.44,9.34-4.6,1.88-2.32,1.11-5.45-.65-7.12-3.01-2.87-6.83-3.54-10.17-4.25-4.83-1.02-9.72-1.31-14.58-1.05-4.08.22-8.33.7-12.25,2.83-1.71.93-4.18,2.67-4.24,6.38.07,4.42,3.43,6.06,5.39,6.95,4.16,1.88,8.59,2.22,12.87,2.33,4.78.12,9.57-.33,14.3-1.46ZM212.37,263c-1.55-.48-6.37-1.66-6.43-5.63.07-4.08,5.08-5.2,6.66-5.7,4.58-1.44,9.31-1.59,13.96-1.43,4.62.16,9.28.77,13.81,2.35.96.33,6.51,2,6.2,4.9-.14,1.36-1.4,2.17-2.02,2.61-1.55,1.11-3.23,1.73-4.87,2.28-4.51,1.49-9.14,2-13.72,2.14-4.52.14-9.12-.12-13.58-1.52Z"/><path class="cls-18" d="M186.69,215.99c10.57,3.09,24.42,3.05,36.18,2.95,15.43-.11,30.91-.95,45.59-4.49l-.19,6.1c-14.68,3.54-30.17,4.38-45.59,4.49-11.76.11-25.61.14-36.18-2.95l.19-6.1Z"/><path class="cls-11" d="M186.69,227.69c10.57,3.08,24.42,3.05,36.18,2.95,15.43-.11,30.91-.95,45.59-4.49l-.19,6.1c-14.68,3.54-30.17,4.37-45.59,4.49-11.76.11-25.61.14-36.18-2.95l.19-6.11Z"/><path class="cls-18" d="M186.58,216.49c12.6,3.59,25.81,3.09,38.64,2.94,14.51-.17,29.06-1.09,43.35-4.48-.17-.16-.34-.33-.51-.49-.03,1.02-.06,2.03-.09,3.05-.02.63-.04,1.27-.06,1.9,0,.23-.01.47-.02.7-.02.74.07,0-.47.13-4.74,1.13-9.52,1.92-14.32,2.55-9.32,1.21-18.7,1.6-28.07,1.72-8.49.11-16.99.18-25.46-.6-4.15-.38-8.29-1.03-12.37-2.14-.38-.11-.31.5-.28-.45.02-.76.04-1.52.07-2.28.03-1.02.06-2.04.09-3.05.02-.66-.78-.66-.8,0-.06,2.04-.12,4.07-.18,6.11,0,.22.13.45.29.5,12.6,3.59,25.81,3.09,38.64,2.94,14.51-.17,29.06-1.09,43.35-4.48.18-.04.29-.28.29-.5.06-2.03.12-4.07.19-6.1.01-.36-.26-.55-.51-.5-14.22,3.38-28.7,4.25-43.13,4.45-12.75.17-25.91.66-38.43-2.9-.51-.14-.72.85-.21.99Z"/><path class="cls-18" d="M186.58,228.19c12.6,3.59,25.81,3.09,38.64,2.94,14.51-.17,29.06-1.09,43.35-4.48-.17-.17-.34-.33-.51-.49-.03,1.02-.06,2.03-.09,3.05-.02.64-.04,1.27-.06,1.9,0,.23-.01.47-.02.7-.02.75.07,0-.47.14-4.74,1.13-9.52,1.92-14.32,2.55-9.32,1.21-18.7,1.6-28.07,1.72-8.49.11-16.99.18-25.46-.6-4.15-.38-8.29-1.03-12.37-2.14-.38-.11-.31.5-.28-.45.02-.76.04-1.52.07-2.28.03-1.02.06-2.04.09-3.05.02-.66-.78-.66-.8,0-.06,2.04-.12,4.07-.18,6.11,0,.22.13.45.29.49,12.6,3.59,25.81,3.09,38.64,2.94,14.51-.17,29.06-1.09,43.35-4.48.18-.04.29-.28.29-.5.06-2.03.12-4.07.19-6.1.01-.36-.26-.56-.51-.5-14.22,3.38-28.7,4.25-43.13,4.45-12.75.17-25.91.66-38.43-2.9-.51-.15-.72.85-.21.99Z"/><path class="cls-18" d="M186.69,101.59c10.57-3.09,24.42-3.05,36.18-2.95,15.43.12,30.91.95,45.59,4.49l-.19-6.1c-14.68-3.54-30.17-4.37-45.59-4.49-11.76-.11-25.61-.14-36.18,2.95l.19,6.11Z"/><path class="cls-11" d="M186.69,89.89c10.57-3.09,24.42-3.05,36.18-2.95,15.43.11,30.91.95,45.59,4.49l-.19-6.1c-14.68-3.54-30.17-4.37-45.59-4.49-11.76-.11-25.61-.14-36.18,2.95l.19,6.11Z"/><path class="cls-18" d="M186.58,101.09c12.6-3.59,25.81-3.09,38.64-2.94,14.51.17,29.06,1.09,43.35,4.48-.17.16-.34.33-.51.49-.03-1.02-.06-2.03-.09-3.05-.02-.63-.04-1.27-.06-1.9,0-.23-.01-.47-.02-.7-.02-.74.07,0-.47-.13-4.74-1.13-9.52-1.92-14.32-2.55-9.32-1.21-18.7-1.6-28.07-1.72-8.49-.11-16.99-.18-25.46.6-4.15.38-8.29,1.03-12.37,2.13-.38.1-.31-.5-.28.45.02.76.04,1.52.07,2.28.03,1.02.06,2.04.09,3.05.02.66-.78.66-.8,0-.06-2.04-.12-4.07-.18-6.1,0-.22.13-.45.29-.5,12.6-3.59,25.81-3.09,38.64-2.94,14.51.17,29.06,1.09,43.35,4.48.18.04.29.28.29.5.06,2.03.12,4.07.19,6.1.01.36-.26.56-.51.5-14.22-3.38-28.7-4.25-43.13-4.45-12.75-.17-25.91-.66-38.43,2.9-.51.14-.72-.85-.21-.99Z"/><path class="cls-18" d="M186.58,89.39c12.6-3.59,25.81-3.09,38.64-2.94,14.51.17,29.06,1.09,43.35,4.48-.17.17-.34.33-.51.49-.03-1.02-.06-2.04-.09-3.05-.02-.63-.04-1.27-.06-1.9,0-.24-.01-.47-.02-.7-.02-.74.07,0-.47-.13-4.74-1.13-9.52-1.92-14.32-2.55-9.32-1.21-18.7-1.6-28.07-1.72-8.49-.11-16.99-.18-25.46.6-4.15.38-8.29,1.03-12.37,2.14-.38.1-.31-.5-.28.45.02.76.04,1.52.07,2.28.03,1.02.06,2.04.09,3.05.02.66-.78.66-.8,0-.06-2.03-.12-4.07-.18-6.1,0-.22.13-.45.29-.49,12.6-3.59,25.81-3.09,38.64-2.94,14.51.17,29.06,1.09,43.35,4.48.18.04.29.28.29.5.06,2.03.12,4.07.19,6.1.01.36-.26.55-.51.5-14.22-3.38-28.7-4.25-43.13-4.45-12.75-.17-25.91-.66-38.43,2.9-.51.14-.72-.85-.21-.99Z"/></g><path class="cls-18" d="M200.08,67.18h0c-.07-.14-.27,1.96-.38,5.78-.13,3.83-.27,9.46-.32,16.61-.1,7.16-.02,15.85.01,25.83.08,9.97.16,21.22.26,33.5.09,12.27.05,25.57-.01,39.63-.11,14.06-.23,28.89-.35,44.23-.02,7.67-.05,15.47.09,23.36.06,3.94.16,7.91.38,11.89.06.99.12,1.99.22,2.97.05.49.1.99.2,1.44.03.22.16.49.06.31.23.11.45.2.69.32,1.82.96,3.54,1.9,5.38,2.71,7.29,3.29,15.45,4.53,23.5,4.02,4.02-.29,8.02-.99,11.82-2.31,1.91-.62,3.75-1.45,5.53-2.36,1.76-.93,3.47-2.02,4.89-3.33.36-.32.67-.67.97-1.02.13-.17.23-.34.35-.51.02-.07.03-.12.06-.17.02-.08.02.04.03-.06v-.19s.04-2.98.04-2.98v-6.13c-.01-4.09-.03-8.17-.04-12.24-.02-8.15-.03-16.27-.05-24.32-.02-16.11-.03-31.96-.05-47.3,0-7.67,0-15.21,0-22.6.02-7.38.03-14.61.05-21.64.07-14.06.13-27.35.19-39.63.04-6.13.07-12.01.1-17.6,0-1.4-.02-2.77-.02-4.13-.01-.68-.02-1.35-.04-2.01l-.04-.98c0-.16-.01-.33-.03-.47l-.02-.22v-.1s0,.05.02.08c.03.05.02,0,.11.1l-.08-.09-.17-.18c-.11-.11-.22-.27-.33-.35-.22-.14-.39-.29-.63-.44l-.78-.43-.84-.36c-1.14-.45-2.33-.8-3.53-1.08-4.79-1.1-9.45-1.49-13.74-1.73-4.29-.24-8.26-.23-11.82-.08-7.14.26-12.73,1.05-16.43,2.01-1.85.48-3.21,1.02-4.06,1.49-.21.12-.4.23-.55.32-.14.11-.26.21-.36.28-.13.11-.22.18-.26.21ZM199.85,66.99s.1-.08.3-.25c.1-.08.23-.18.38-.3.16-.1.36-.21.57-.34.88-.49,2.26-1.06,4.13-1.55,3.73-1,9.33-1.81,16.49-2.25,3.58-.2,7.55-.32,11.88-.24,4.33.1,9.02.33,14,1.3,1.24.25,2.5.57,3.77,1.02l.95.37.94.48c.32.18.66.44.98.68.15.12.24.24.36.35l.17.18.09.09c.15.17.12.21.19.33.04.1.07.21.09.32l.02.15.04.27c.03.19.03.35.05.52l.08,1.02c.04.68.08,1.36.11,2.04.06,1.37.12,2.75.17,4.15.2,5.6.38,11.48.49,17.62.27,12.28.36,25.58.41,39.64.04,7.03.05,14.26.02,21.64-.03,7.39-.06,14.93-.09,22.6-.14,15.34-.28,31.2-.42,47.31-.12,8.05-.23,16.17-.35,24.33-.09,4.08-.17,8.16-.26,12.25l-.15,6.14-.05,1.54-.07,1.61-.02.19s-.06.27-.08.31c-.07.18-.14.37-.22.54-.17.25-.34.52-.53.75-.37.43-.76.83-1.17,1.18-1.62,1.43-3.43,2.52-5.3,3.46-1.88.92-3.8,1.73-5.79,2.33-3.95,1.28-8.09,1.91-12.19,2.12-8.2.45-16.54-.88-23.94-4.3-1.84-.83-3.65-1.83-5.38-2.73-.21-.11-.45-.21-.68-.31-.03-.02-.12,0-.35-.26-.06-.1-.11-.21-.13-.28-.05-.15-.08-.29-.11-.42-.11-.53-.16-1.03-.22-1.53-.1-1.01-.18-2.01-.24-3.01-.24-4-.37-7.97-.51-11.92-.21-7.9-.43-15.7-.63-23.37-.32-15.34-.62-30.18-.67-44.24-.04-14.07.02-27.37.26-39.64.22-12.28.56-23.53.83-33.5.29-9.97.55-18.66.76-25.82.22-7.16.36-12.78.52-16.62.15-3.85.31-5.85.46-5.93l.03-.03Z"/><path class="cls-4" d="M20.31,62.07c-1.51,1.48-2.86,209.72,0,210.85,2.86,1.13,11.86,7.88,28.62,7.5,16.76-.38,26.58-8.25,26.98-10.5.41-2.25,1.32-206.02,0-207.85-4.9-6.75-49.47-6-55.61,0Z"/><path class="cls-21" d="M34.53,203.74c0,7.18,5.82,13,13,13s13-5.82,13-13V64.61c0-2.6-.77-5.01-2.08-7.04-7.05-.47-15.1-.34-22.04.34-1.18,1.96-1.88,4.25-1.88,6.7v139.13Z"/><path class="cls-1" d="M25.39,195.66c-2.94-13.7-5.16-27.52-6.67-41.39-.28,56.45.03,118.04,1.58,118.65,2.86,1.13,11.86,7.88,28.62,7.5,11.17-.25,19.25-3.83,23.52-6.86-26.63-15.9-40.9-47.71-47.06-77.9Z"/><g class="cls-25"><path class="cls-11" d="M24.91,269.74c9.6.82,20.02.82,29.62.82,5.82,0,11.33-1.12,17.05-1.43,0-5.72.25-25.02-.51-28.39-3.88.51-41.26.1-46.06.82-.61,5.82,0,12.05-.2,17.87-.21,3.06-.61,7.35.1,10.31Z"/><path class="cls-7" d="M84.13,90.38c-12.78-4.6-26.34-5.27-39.86-4.9-10.31.25-22.46.68-31.81,5.48v-8.77c9.35-4.8,21.5-5.23,31.81-5.48,13.52-.36,27.08.31,39.86,4.91v8.76Z"/><path class="cls-12" d="M84.13,90.38c-12.78-4.6-26.34-5.27-39.86-4.9-10.31.25-22.46.68-31.81,5.48l.87,1.21c2.98,6.76,10.32,2.41,12.27-2.52,2.09,8.94,11.75,6,12.96-.69,2.18,6.99,12.04,6.53,13.64-.69,1.38,6.07,10.66,7.34,12.38.92-.11,2.64,2.52,5.27,5.04,5.39,2.75.11,4.24-1.72,5.27-4.13.57,4.93,5.73,7.11,9.29,2.64l-.04-2.7Z"/><path class="cls-18" d="M69.84,88.53c-1.1,0-2.03.92-2.03,2.03s.92,2.02,2.03,2.02,2.03-.92,2.03-2.02c0-1.1-.92-2.03-2.03-2.03Z"/><path class="cls-18" d="M58.61,87.9c-1.1,0-2.03.92-2.03,2.02s.92,2.02,2.03,2.02,2.03-.92,2.03-2.02c0-1.1-.92-2.02-2.03-2.02Z"/><circle class="cls-18" cx="45.59" cy="88.93" r="2.03"/><path class="cls-18" d="M30.92,87.9c-1.1,0-2.03.92-2.03,2.02s.92,2.02,2.03,2.02,2.03-.92,2.03-2.02c0-1.1-.92-2.02-2.03-2.02Z"/><path class="cls-18" d="M18.64,89.93c-1.1,0-2.03.92-2.03,2.02s.92,2.03,2.03,2.03,2.03-.92,2.03-2.03-.92-2.02-2.03-2.02Z"/><path class="cls-18" d="M79.4,89.93c-1.1,0-2.03.92-2.03,2.02s.92,2.03,2.03,2.03,2.03-.92,2.03-2.03-.92-2.02-2.03-2.02Z"/><path class="cls-18" d="M72.09,240.45c-.09-.41-.58-.83-1.02-.77-2.68.33-5.46.21-8.16.24-4.84.05-9.68.07-14.53.09-4.9.02-9.8.05-14.7.13-2.97.05-6.01-.02-8.96.4-.49.07-.73.59-.77,1.02-.49,5.08-.17,10.17-.16,15.26,0,4.39-.85,8.85.1,13.2.11.52.5.75.91.75.04,0,.07.02.1.02,7.69.64,15.4.77,23.11.81,3.94.02,7.88.08,11.8-.25,3.92-.34,7.82-.94,11.75-1.17.57-.04,1.05-.45,1.05-1.05,0-5.1.06-10.19.03-15.29-.02-4.35.33-9.1-.58-13.38ZM48.68,269.49c-7.63-.02-15.28-.15-22.89-.75-.66-3.91.1-8,.11-11.93.02-4.78-.28-9.55.09-14.33,2.3-.24,5.26-.2,7.69-.24,4.9-.08,9.8-.1,14.7-.13,4.84-.02,9.68-.04,14.53-.09,2.4-.02,4.87.06,7.28-.15.18,1.32.18,2.68.23,3.99.1,2.8.12,5.59.14,8.39.03,4.63-.02,9.26-.03,13.89-3.36.25-6.7.69-10.05,1.02-3.93.39-7.86.33-11.8.32Z"/><path class="cls-18" d="M12.81,82.8c10.22-5.14,22.23-5.2,33.42-5.43,12.74-.26,25.62.64,37.71,4.93.86.3,1.22-1.05.37-1.35-12.22-4.33-25.22-5.2-38.09-4.98-11.44.2-23.68.37-34.13,5.62-.81.41-.1,1.62.71,1.21Z"/><path class="cls-18" d="M46.23,86.14c12.74-.26,25.62.64,37.71,4.93.86.3,1.22-1.05.37-1.35-12.22-4.33-25.22-5.2-38.09-4.98-11.44.2-23.68.37-34.13,5.62-.81.41-.1,1.62.71,1.21,10.22-5.14,22.23-5.2,33.42-5.43Z"/><path class="cls-18" d="M83.68,92.58c-1.26,1.49-2.88,2.57-4.9,2.08-1.99-.48-2.94-2.57-3.21-4.41-.09-.59-1.04-.7-1.28-.17-.84,1.87-1.95,3.57-4.17,3.78-2.54.24-4.79-2.29-4.84-4.68-.02-.8-1.15-.95-1.38-.19-1.71,5.73-9.69,4.29-11.03-.92-.17-.67-1.19-.68-1.36,0-1.55,6.26-10.16,6.97-12.29.69-.21-.61-1.21-.73-1.36,0-.56,2.73-2.48,4.92-5.21,5.62-3.42.88-5.63-1.96-6.39-4.94-.19-.74-1.11-.59-1.35,0-.94,2.24-2.82,4.17-5.08,5.09-2.66,1.09-4.75-.32-5.9-2.74-.39-.82-1.6-.1-1.21.71,3,6.34,9.73,3.53,12.72-1.13,1.17,2.79,3.48,4.87,6.81,4.49,2.9-.32,5.29-2.41,6.42-5.02,3.15,5.15,10.86,4.76,13.54-.65,2.5,4.43,9.25,5.33,12.11,1.11.82,2,2.64,3.67,4.81,3.9,2.52.27,4.29-.99,5.52-2.88.6,1.59,1.72,3,3.39,3.56,2.58.86,4.94-.35,6.62-2.33.58-.69-.41-1.69-1-.99Z"/><path class="cls-7" d="M84.13,221c-12.78,4.6-26.34,5.27-39.86,4.91-10.31-.25-22.46-.68-31.81-5.48v8.77c9.35,4.8,21.5,5.23,31.81,5.48,13.52.36,27.08-.31,39.86-4.9v-8.77Z"/><path class="cls-12" d="M84.13,221c-12.78,4.6-26.34,5.27-39.86,4.91-10.31-.25-22.46-.68-31.81-5.48l.87-1.21c2.98-6.76,10.32-2.41,12.27,2.52,2.09-8.94,11.75-6,12.96.69,2.18-6.99,12.04-6.54,13.64.69,1.38-6.08,10.66-7.34,12.38-.92-.11-2.64,2.52-5.27,5.04-5.39,2.75-.11,4.24,1.72,5.27,4.13.57-4.93,5.73-7.11,9.29-2.64l-.04,2.7Z"/><path class="cls-18" d="M12.81,228.59c10.22,5.14,22.23,5.2,33.42,5.43,12.74.26,25.62-.64,37.71-4.93.86-.3,1.22,1.05.37,1.36-12.22,4.33-25.22,5.2-38.09,4.98-11.44-.2-23.68-.37-34.13-5.62-.81-.41-.1-1.62.71-1.21Z"/><path class="cls-18" d="M46.23,225.25c12.74.26,25.62-.64,37.71-4.93.86-.3,1.22,1.05.37,1.36-12.22,4.33-25.22,5.2-38.09,4.98-11.44-.2-23.68-.37-34.13-5.62-.81-.41-.1-1.62.71-1.21,10.22,5.14,22.23,5.2,33.42,5.43Z"/><path class="cls-18" d="M83.68,218.8c-1.26-1.49-2.88-2.57-4.9-2.08-1.99.48-2.94,2.58-3.21,4.41-.09.58-1.04.7-1.28.17-.84-1.87-1.95-3.57-4.17-3.78-2.54-.24-4.79,2.29-4.84,4.69-.02.8-1.15.95-1.38.19-1.71-5.73-9.69-4.29-11.03.92-.17.67-1.19.68-1.36,0-1.55-6.26-10.16-6.96-12.29-.69-.21.61-1.21.73-1.36,0-.56-2.73-2.48-4.92-5.21-5.63-3.42-.88-5.63,1.96-6.39,4.94-.19.74-1.11.59-1.35,0-.94-2.24-2.82-4.17-5.08-5.09-2.66-1.09-4.75.31-5.9,2.74-.39.82-1.6.11-1.21-.71,3-6.34,9.73-3.53,12.72,1.13,1.17-2.79,3.48-4.86,6.81-4.49,2.9.32,5.29,2.41,6.42,5.02,3.15-5.15,10.86-4.75,13.54.65,2.5-4.43,9.25-5.33,12.11-1.11.82-2,2.64-3.67,4.81-3.9,2.52-.27,4.29.99,5.52,2.88.6-1.59,1.72-3,3.39-3.56,2.58-.86,4.94.35,6.62,2.33.58.69-.41,1.69-1,.99Z"/><path class="cls-14" d="M64.09,155.53c0,4.2-.19,10.71-1.73,14.07-2.54,5.77-6.93,5.77-10.76,5.77-.06,4.73,0,9.24-.5,13.97-.5,4.31-2.02,9.35-5.5,9.35s-5.01-5.04-5.5-9.35c-.5-4.73-.43-9.24-.5-13.97-3.83,0-8.22,0-10.76-5.77-1.55-3.36-1.73-9.87-1.73-14.07s.19-10.71,1.73-14.07c2.54-5.78,6.93-5.78,10.76-5.78.06-4.73,0-9.24.5-13.97.5-4.31,2.02-9.35,5.5-9.35s5.01,5.04,5.5,9.35c.5,4.73.43,9.24.5,13.97,3.83,0,8.22,0,10.76,5.78,1.55,3.36,1.73,9.87,1.73,14.07Z"/><path class="cls-18" d="M39.08,176.28c.06,8.54-.26,22.82,6.52,23.32,6.74.49,6.47-15.43,6.52-23.32,3.39-.02,6.85-.32,9.58-4.13,2.79-3.88,2.9-11.01,2.92-16.61-.02-5.93-.23-12.31-2.92-16.61-2.5-4-6.32-4.13-9.58-4.13-.06-8.54.26-22.82-6.52-23.32-6.74-.49-6.47,15.43-6.52,23.32-3.39.02-6.85.32-9.58,4.13-2.79,3.88-2.9,11.01-2.92,16.61-.02,5.91.25,12.33,2.92,16.61,2.5,3.99,6.32,4.12,9.58,4.13ZM30.24,140.18c2.4-3.85,6.3-3.61,9.35-3.61.29,0,.52-.41.53-.9.08-7.22-.72-21.97,5.47-22.42,6.16-.45,5.4,15.93,5.47,22.42,0,.49.24.9.53.9,3.22,0,6.73-.05,9.35,3.61,2.57,3.57,2.6,10.19,2.61,15.35-.01,5.44-.14,11.38-2.61,15.35-2.4,3.84-6.3,3.61-9.35,3.61-.29,0-.52.41-.53.89-.08,7.22.72,21.97-5.47,22.42-6.16.45-5.4-15.94-5.47-22.42,0-.49-.24-.89-.53-.89-3.22,0-6.73.05-9.35-3.61-2.57-3.57-2.6-10.2-2.61-15.35-.01-5.42.15-11.41,2.61-15.35Z"/></g><path class="cls-18" d="M20.44,62.15c-.07-.13-.27,2.02-.4,5.92-.14,3.92-.28,9.68-.33,17.01-.1,7.33-.03,16.23,0,26.43.08,10.21.16,21.72.25,34.29.08,12.56.05,26.17-.01,40.56-.11,14.39-.22,29.57-.34,45.27-.02,7.85-.05,15.83.1,23.91.06,4.04.16,8.1.39,12.17.06,1.02.12,2.03.22,3.04.05.5.11,1.01.2,1.48.03.22.17.51.06.33.24.11.47.2.7.33,1.87.98,3.62,1.95,5.51,2.77,7.46,3.37,15.81,4.64,24.06,4.12,4.11-.29,8.21-1.01,12.1-2.36,1.96-.64,3.84-1.48,5.66-2.42,1.8-.95,3.55-2.07,5.01-3.41.37-.33.69-.69.99-1.04.14-.18.23-.35.36-.52.02-.07.04-.12.06-.18.02-.08.03.03.03-.06v-.2s.04-3.06.04-3.06v-6.27c0-4.18-.02-8.36-.04-12.53-.01-8.34-.03-16.65-.04-24.89-.01-16.49-.03-32.71-.04-48.42v-23.13c.02-7.56.03-14.95.05-22.15.07-14.39.13-28,.19-40.56.04-6.28.07-12.29.1-18.01,0-1.43-.02-2.84-.02-4.23-.01-.69-.03-1.38-.04-2.06l-.04-1.01c-.01-.16-.01-.34-.03-.48l-.02-.23v-.11s0,.05.02.07c.03.05.01-.01.11.1l-.08-.09-.17-.19c-.11-.12-.23-.27-.34-.35-.22-.14-.4-.3-.65-.46l-.81-.44-.86-.37c-1.17-.46-2.39-.82-3.61-1.1-4.9-1.12-9.68-1.52-14.06-1.77-4.4-.24-8.45-.23-12.1-.08-7.31.27-13.03,1.08-16.81,2.06-1.89.49-3.29,1.05-4.16,1.53-.22.12-.41.23-.57.33-.15.12-.27.21-.37.29-.2.15-.29.23-.29.23l.02-.03ZM20.21,61.97s.1-.09.31-.25c.1-.08.23-.19.39-.31.17-.1.37-.21.59-.34.9-.5,2.32-1.08,4.22-1.59,3.81-1.02,9.55-1.85,16.87-2.29,3.67-.2,7.73-.32,12.16-.24,4.43.1,9.23.34,14.32,1.33,1.27.25,2.56.58,3.85,1.04l.97.38.96.49c.33.19.67.45,1,.69.15.12.25.24.37.36l.18.18.09.09c.15.18.13.22.19.34.04.1.07.21.09.32l.02.15.04.28c.03.19.04.36.05.54l.08,1.04c.04.69.08,1.39.12,2.09.06,1.4.12,2.81.18,4.25.2,5.73.39,11.75.5,18.04.27,12.57.36,26.18.41,40.57.04,7.2.05,14.59.02,22.15-.03,7.56-.06,15.28-.1,23.13-.14,15.7-.28,31.93-.42,48.42-.12,8.25-.24,16.55-.35,24.9-.09,4.17-.17,8.35-.26,12.54l-.16,6.28-.05,1.57-.07,1.65-.02.2s-.06.27-.08.31c-.07.19-.14.38-.22.55-.18.26-.35.53-.54.76l-.58.64c-.2.2-.41.38-.61.57-1.66,1.46-3.51,2.57-5.42,3.54-1.92.94-3.89,1.77-5.92,2.39-4.04,1.31-8.27,1.95-12.48,2.17-4.2.22-8.42,0-12.55-.71-1.04-.15-2.05-.42-3.08-.62-1.01-.28-2.03-.51-3.02-.84-2-.6-3.95-1.36-5.84-2.22-1.89-.85-3.74-1.88-5.51-2.79-.21-.12-.46-.21-.69-.32-.02-.02-.13-.01-.35-.27-.06-.1-.11-.21-.13-.28-.05-.15-.08-.3-.11-.43-.11-.54-.17-1.05-.22-1.57-.11-1.03-.18-2.06-.24-3.08-.24-4.09-.37-8.16-.52-12.2-.22-8.08-.43-16.07-.64-23.92-.33-15.7-.62-30.89-.67-45.29-.04-14.4.03-28.01.26-40.57.22-12.56.57-24.08.83-34.29.3-10.21.55-19.1.77-26.43.22-7.33.37-13.08.53-17.01.16-3.94.32-5.98.47-6.07l.02-.03Z"/><path class="cls-5" d="M256.93,21.38c-1.21,1.47-2.3,250.42,0,251.54,2.3,1.13,9.52,7.88,22.97,7.5,13.45-.38,21.33-8.25,21.66-10.5.33-2.25,1.06-246.72,0-248.54-3.93-6.75-39.71-6-44.63,0Z"/><path class="cls-21" d="M279.09,206.46c6.21,0,11.24-5.03,11.24-11.24V17.16c-6.89-.87-15.61-.72-22.49.32v177.74c0,6.21,5.03,11.24,11.24,11.24Z"/><path class="cls-17" d="M255.59,174.69c0,52.2.36,97.75,1.35,98.23,2.3,1.13,9.52,7.88,22.97,7.5,13.45-.38,21.33-8.25,21.66-10.5.02-.17.05-1.69.08-4.35-6.53-7.23-12.45-15.02-17.63-21.17-15.06-19.85-23.45-45.04-28.42-69.71Z"/><g class="cls-29"><path class="cls-7" d="M258.71,8.73c.06,6.7.12,13.41.18,20.11.15,16.9.31,33.81.46,50.71.2,22.29.41,44.57.61,66.86.21,22.85.42,45.7.62,68.56.17,18.6.34,37.2.51,55.8.09,9.54.17,19.07.26,28.6,0,.4,0,.81.01,1.21,0,.91,1.41.91,1.41,0-.06-6.7-.12-13.41-.18-20.11-.15-16.9-.31-33.81-.46-50.71-.2-22.28-.4-44.57-.61-66.86-.21-22.85-.41-45.7-.62-68.55-.17-18.6-.34-37.2-.51-55.8-.09-9.54-.17-19.07-.26-28.6,0-.4,0-.81-.01-1.21,0-.91-1.41-.91-1.41,0h0Z"/><path class="cls-7" d="M269.91,300.58c-.06-6.7-.12-13.41-.18-20.11-.15-16.9-.31-33.81-.46-50.71-.2-22.28-.4-44.57-.61-66.86-.21-22.85-.41-45.7-.62-68.55-.17-18.6-.34-37.2-.51-55.81-.09-9.53-.17-19.07-.26-28.6,0-.4,0-.81-.01-1.21,0-.91-1.41-.91-1.41,0,.06,6.7.12,13.41.18,20.11.15,16.9.31,33.81.46,50.71.2,22.29.4,44.57.61,66.86.21,22.85.41,45.7.62,68.56.17,18.6.34,37.2.51,55.8.09,9.54.17,19.07.26,28.6,0,.4,0,.81.01,1.21,0,.91,1.41.91,1.41,0h0Z"/><path class="cls-7" d="M273.25,8.73c.06,6.7.12,13.41.18,20.11.15,16.9.31,33.81.46,50.71.2,22.29.4,44.57.61,66.86.21,22.85.42,45.7.62,68.56.17,18.6.34,37.2.51,55.8.09,9.54.17,19.07.26,28.6,0,.4,0,.81.01,1.21,0,.91,1.41.91,1.4,0-.06-6.7-.12-13.41-.18-20.11-.15-16.9-.31-33.81-.46-50.71-.2-22.28-.4-44.57-.61-66.86-.21-22.85-.42-45.7-.62-68.55-.17-18.6-.34-37.2-.51-55.8-.09-9.54-.17-19.07-.26-28.6,0-.4,0-.81-.01-1.21,0-.91-1.41-.91-1.41,0h0Z"/><path class="cls-7" d="M284.45,300.58c-.06-6.7-.12-13.41-.18-20.11-.15-16.9-.31-33.81-.46-50.71-.2-22.28-.4-44.57-.61-66.86-.21-22.85-.42-45.7-.62-68.55-.17-18.6-.34-37.2-.51-55.81-.09-9.53-.17-19.07-.26-28.6,0-.4,0-.81-.01-1.21,0-.91-1.41-.91-1.4,0,.06,6.7.12,13.41.18,20.11.15,16.9.31,33.81.46,50.71.2,22.29.41,44.57.61,66.86.21,22.85.42,45.7.62,68.56.17,18.6.34,37.2.51,55.8.09,9.54.17,19.07.26,28.6,0,.4,0,.81.01,1.21,0,.91,1.41.91,1.4,0h0Z"/><path class="cls-7" d="M287.8,8.73c.06,6.7.12,13.41.18,20.11.15,16.9.31,33.81.46,50.71.2,22.29.4,44.57.61,66.86.21,22.85.42,45.7.62,68.56.17,18.6.34,37.2.51,55.8.09,9.54.17,19.07.26,28.6,0,.4,0,.81.01,1.21,0,.91,1.41.91,1.41,0-.06-6.7-.12-13.41-.18-20.11-.15-16.9-.31-33.81-.46-50.71-.2-22.28-.4-44.57-.61-66.86-.21-22.85-.42-45.7-.62-68.55-.17-18.6-.34-37.2-.51-55.8-.09-9.54-.17-19.07-.26-28.6,0-.4,0-.81-.01-1.21-.01-.91-1.42-.91-1.41,0h0Z"/><path class="cls-7" d="M299,300.58c-.06-6.7-.12-13.41-.18-20.11-.15-16.9-.31-33.81-.46-50.71-.2-22.28-.4-44.57-.61-66.86-.21-22.85-.41-45.7-.62-68.55-.17-18.6-.34-37.2-.51-55.81-.09-9.53-.17-19.07-.26-28.6,0-.4,0-.81-.01-1.21,0-.91-1.41-.91-1.41,0,.06,6.7.12,13.41.18,20.11.15,16.9.31,33.81.46,50.71.2,22.29.4,44.57.61,66.86.21,22.85.41,45.7.62,68.56.17,18.6.34,37.2.51,55.8.09,9.54.17,19.07.26,28.6,0,.4,0,.81.01,1.21,0,.91,1.41.91,1.41,0h0Z"/><path class="cls-3" d="M264.76,98.68c-.82,9.6-.82,55.08-.82,64.68,0,5.82,1.12,11.34,1.43,17.05,5.72,0,25.02.25,28.39-.51-.51-3.88-.1-76.32-.82-81.12-5.82-.61-12.05,0-17.87-.2-3.07-.21-7.35-.61-10.32.1Z"/><path class="cls-18" d="M294.05,180.92c.41-.09.83-.58.77-1.02-.33-2.68-.21-5.46-.24-8.16-.05-4.84-.07-9.68-.09-14.52-.02-4.9-.05-44.86-.13-49.76-.05-2.97.02-6.01-.39-8.96-.07-.49-.59-.73-1.02-.77-5.08-.49-10.17-.17-15.26-.16-4.39,0-8.85-.85-13.2.1-.53.11-.75.5-.76.91,0,.04-.02.07-.02.1-.64,7.69-.77,50.47-.81,58.18-.02,3.94-.08,7.88.25,11.8.33,3.92.93,7.82,1.17,11.75.03.57.45,1.05,1.05,1.05,5.1,0,10.19.06,15.29.03,4.35-.02,9.1.33,13.38-.58ZM265.01,157.52c.02-7.63.15-50.34.74-57.95,3.91-.66,8,.1,11.94.11,4.78.02,9.55-.28,14.32.09.24,2.3.2,5.26.24,7.69.08,4.9.1,44.86.13,49.76.02,4.84.04,9.68.09,14.52.03,2.4-.06,4.87.15,7.28-1.32.18-2.68.18-3.99.23-2.8.1-5.59.12-8.39.14-4.63.02-9.26-.02-13.89-.03-.25-3.36-.69-6.7-1.02-10.05-.39-3.93-.33-7.86-.32-11.8Z"/><path class="cls-11" d="M245.85,64.35c9.35-4.8,21.5-5.23,31.81-5.48,13.52-.36,27.08.31,39.86,4.9v-8.78c-12.78-4.6-26.34-5.27-39.86-4.9-10.32.25-22.46.68-31.81,5.48v8.78Z"/><path class="cls-11" d="M245.85,245.12c9.35,4.8,21.5,5.23,31.81,5.48,13.52.36,27.08-.31,39.86-4.9v8.78c-12.78,4.6-26.34,5.27-39.86,4.9-10.32-.25-22.46-.67-31.81-5.48v-8.78Z"/><path class="cls-18" d="M246.21,64.95c10.23-5.14,22.23-5.2,33.42-5.43,12.74-.26,25.62.64,37.71,4.93.43.15.89-.25.89-.68v-8.78c0-.33-.22-.57-.52-.68-12.23-4.33-25.22-5.2-38.09-4.98-11.44.2-23.68.37-34.13,5.62-.22.11-.35.37-.35.61v8.78c0,.91,1.4.91,1.4,0v-8.37c0-.71.03,0,.15-.06,6.85-3.44,14.81-4.35,22.36-4.81,16.11-.98,32.89-.89,48.27,4.56-.17-.23-.34-.45-.52-.68v8.78c.3-.23.59-.45.89-.68-12.23-4.33-25.22-5.2-38.09-4.98-11.44.2-23.68.37-34.13,5.62-.81.41-.1,1.62.71,1.22Z"/><path class="cls-18" d="M245.5,245.73c10.28,5.17,22.22,5.35,33.48,5.61,13.07.3,26.33-.56,38.74-4.96-.3-.23-.59-.45-.89-.68v8.78c.17-.23.34-.45.52-.68-15.42,5.46-32.13,5.48-48.27,4.56-7.61-.43-15.42-1.47-22.36-4.81-.14-.07-.15.63-.15.08v-8.51c0-.91-1.4-.91-1.4,0v8.79c0,.23.13.5.35.61,10.28,5.17,22.22,5.35,33.48,5.61,13.07.3,26.33-.56,38.74-4.96.3-.11.52-.35.52-.68v-8.78c0-.43-.45-.83-.89-.68-11.91,4.22-24.52,5.12-37.06,4.94-11.37-.16-23.69-.22-34.08-5.44-.81-.4-1.52.81-.71,1.22Z"/></g><path class="cls-18" d="M257.07,21.44s-.02.04-.03.1c0,.06-.02.15-.03.28-.03.28-.06.71-.08,1.27-.06,1.12-.11,2.8-.16,4.98-.1,4.37-.21,10.77-.24,18.93-.07,8.15.03,18.06.09,29.42.09,11.36.19,24.18.31,38.16.1,13.98.06,29.12,0,45.14-.14,16.02-.3,32.91-.45,50.39-.06,8.74-.15,17.62-.08,26.61.07,8.99.07,18.09.37,27.26.08,2.29.17,4.59.34,6.86.05.56.1,1.15.2,1.65.01.07.03.11.04.14.1.11-.28-.27-.09-.1l.38.21.77.48c.97.64,1.92,1.27,2.9,1.85,3.9,2.36,8.28,3.92,12.81,4.49,1.13.18,2.27.2,3.41.27h1.72c.28-.02.59,0,.84-.03l.87-.06c1.18-.05,2.29-.23,3.4-.39,1.11-.23,2.24-.43,3.33-.77,4.36-1.24,8.55-3.44,11.64-6.65.36-.41.71-.83.99-1.26.15-.21.24-.43.34-.62.02-.08.04-.16.07-.23,0-.01.02-.27.02-.36l.02-3.44-.02-6.98c-.02-4.65-.04-9.31-.07-13.95-.03-9.29-.05-18.53-.08-27.71-.03-18.35-.06-36.41-.08-53.88,0-8.74,0-17.33,0-25.74.02-8.41.04-16.64.06-24.65.03-8.01.07-15.8.1-23.34.06-7.54.12-14.82.18-21.81.11-13.98.34-26.8.34-38.15,0-1.42,0-2.81-.01-4.19,0-.68-.02-1.36-.03-2.04-.01-.64-.03-1.4-.07-1.9,0,0,.03-.04.03-.03l-.15-.2c-.1-.13-.19-.27-.29-.39-.22-.17-.37-.37-.62-.54-.48-.36-1.03-.65-1.58-.92-1.12-.51-2.31-.87-3.47-1.19-4.72-1.16-9.26-1.45-13.31-1.55-8.13-.17-14.53.68-18.74,1.77-2.1.54-3.65,1.18-4.6,1.77-.45.31-.8.55-.98.76-.2.19-.3.29-.3.29l.02-.03ZM256.82,21.28s.11-.11.32-.32c.2-.23.56-.48,1.03-.81.97-.62,2.55-1.28,4.67-1.84,4.24-1.12,10.65-2,18.83-2,2.05,0,4.2.09,6.46.27,2.26.18,4.62.45,7.05.99,1.21.29,2.45.62,3.67,1.14.61.27,1.21.57,1.79.98.29.19.58.48.87.73.12.13.21.26.31.39l.15.2c.12.14.12.29.17.44.05.29.04.38.06.58l.04.51.06,1.02c.03.68.06,1.36.09,2.05.05,1.38.09,2.77.14,4.2.3,11.36.62,24.18.8,38.16.08,6.99.16,14.27.24,21.81.08,7.54.07,15.33.11,23.34,0,8.01.01,16.24.02,24.65-.03,8.41-.06,17.01-.09,25.74-.12,17.48-.25,35.54-.38,53.89-.11,9.18-.21,18.42-.32,27.71-.08,4.64-.16,9.29-.23,13.95l-.14,6.99-.1,3.55c-.01.19,0,.24-.04.51-.05.2-.12.41-.19.6-.16.32-.32.64-.51.9-.37.54-.78,1-1.2,1.46-3.47,3.46-7.88,5.62-12.47,6.85-1.14.34-2.32.52-3.49.74-1.19.15-2.38.31-3.53.34l-.87.05c-.33.02-.6,0-.9,0l-1.77-.02c-1.18-.1-2.36-.15-3.52-.35-4.68-.61-9.2-2.27-13.19-4.72-1-.6-1.97-1.25-2.92-1.89l-.69-.45-.38-.21c.06.12-.43-.39-.36-.42-.04-.11-.06-.21-.08-.28-.12-.64-.15-1.2-.2-1.78-.16-2.32-.23-4.61-.3-6.91-.53-18.36-.64-36.41-.98-53.89-.25-17.48-.52-34.37-.56-50.39-.03-16.02.03-31.17.26-45.15.21-13.98.53-26.8.78-38.16.27-11.36.49-21.26.68-29.42.19-8.15.33-14.56.43-18.93.12-4.38.25-6.66.37-6.75l.02-.03Z"/><path class="cls-22" d="M130.36,93.49c-1.02,1.3,21.22,182.88,23.56,183.47,2.34.59,10,4.94,23,2.98,12.99-1.97,19.84-9.07,19.93-10.86.1-1.79-22.05-179.85-23.26-181.14-4.49-4.76-39.06.27-43.23,5.55Z"/><path class="cls-21" d="M166.2,217.99c7.03-.9,11.99-7.33,11.09-14.36l-15.1-117.57c-8.11.23-18.57,1.9-25.34,4.09l14.99,116.75c.9,7.03,7.33,11.99,14.36,11.09Z"/><path class="cls-16" d="M144.23,211.77c4.58,35.35,8.75,64.95,9.69,65.19,2.34.59,10,4.94,23,2.98,4.5-.68,8.24-1.98,11.24-3.46-14.13-19.01-34-31.53-41.38-55.99-.9-2.85-1.75-5.76-2.56-8.71Z"/><g class="cls-28"><path class="cls-14" d="M139.84,129.41c6.89-.29,14.28-1.24,21.09-2.12,4.13-.53,7.94-1.83,11.97-2.57-.52-4.06-2.1-17.78-2.95-20.1-2.71.71-29.27,3.83-32.61,4.77.1,4.19,1.1,8.55,1.48,12.7.13,2.19.23,5.27,1.01,7.31Z"/><path class="cls-19" d="M145.25,230.22c-1.61-1.75-1.28-4.1-.52-6.11,1.84-4.83,8.32-9.27,4.49-14.93-2.73-4.02-8.71-5.4-7.49-11.27.91-4.38,4.37-7.83,4.97-12.34.55-4.18-3.14-6.41-6.38-8-2.3-1.13-4.61-2.23-4.99-5.04-.41-3.05,2.24-5.83,3.62-8.29,2.15-3.85,2.02-7.8-1.95-10.25-1.66-1.02-3.61-1.63-5-3.04-1.93-1.97-.32-7.18,2.48-7.64,1.22-.2.98-2.11-.24-1.91-3.84.64-5.82,6.04-4.65,9.38,1.36,3.9,7.12,3.62,8.73,7.31,1.18,2.71-1.41,5.86-2.75,7.99-1.32,2.1-2.24,4.18-2.14,6.7.19,4.72,5.67,5.97,8.88,8.07,4.93,3.23,1.07,8.64-.85,12.52-1.9,3.84-2.92,8.13.32,11.57,1.57,1.67,3.67,2.73,5.21,4.44,3.23,3.6.27,7.3-1.96,10.39-3.12,4.33-4.33,9.95.68,13.37,1.34.92,2.73,1.58,2.47,3.48-.17,1.23,1.74,1.5,1.91.27.27-1.93-.41-3.24-1.92-4.42-1-.78-2.02-1.3-2.89-2.24Z"/><path class="cls-19" d="M153.97,229.1c-1.61-1.75-1.28-4.1-.51-6.11,1.84-4.83,8.31-9.27,4.49-14.93-2.73-4.02-8.71-5.4-7.49-11.27.91-4.38,4.37-7.83,4.97-12.34.55-4.18-3.14-6.41-6.38-8-2.3-1.14-4.61-2.23-4.99-5.04-.41-3.05,2.24-5.83,3.62-8.29,2.15-3.85,2.02-7.8-1.95-10.25-1.65-1.02-3.61-1.63-5-3.04-1.93-1.97-.32-7.18,2.48-7.64,1.22-.2.98-2.11-.24-1.91-3.84.63-5.82,6.04-4.65,9.38,1.36,3.9,7.12,3.62,8.73,7.31,1.18,2.71-1.41,5.86-2.74,7.99-1.32,2.1-2.24,4.18-2.14,6.7.19,4.72,5.67,5.97,8.88,8.07,4.93,3.23,1.07,8.64-.85,12.52-1.9,3.84-2.91,8.13.32,11.57,1.57,1.67,3.67,2.73,5.21,4.44,3.23,3.6.27,7.3-1.96,10.4-3.12,4.33-4.33,9.94.68,13.36,1.34.92,2.73,1.58,2.47,3.48-.17,1.23,1.74,1.5,1.91.27.27-1.93-.41-3.25-1.92-4.42-1-.78-2.02-1.3-2.9-2.24Z"/><path class="cls-19" d="M162.69,227.98c-1.61-1.75-1.28-4.11-.52-6.11,1.84-4.83,8.32-9.27,4.49-14.93-2.72-4.02-8.71-5.4-7.49-11.27.91-4.38,4.37-7.83,4.97-12.34.55-4.18-3.14-6.41-6.38-8-2.3-1.14-4.61-2.23-4.99-5.04-.41-3.05,2.24-5.83,3.62-8.29,2.15-3.85,2.02-7.8-1.95-10.25-1.66-1.02-3.61-1.63-5-3.04-1.93-1.97-.32-7.18,2.48-7.65,1.22-.2.98-2.11-.24-1.91-3.84.63-5.82,6.04-4.65,9.38,1.36,3.9,7.12,3.62,8.73,7.31,1.18,2.71-1.41,5.86-2.75,7.99-1.32,2.11-2.24,4.18-2.14,6.7.19,4.72,5.67,5.97,8.88,8.07,4.93,3.23,1.07,8.64-.85,12.52-1.9,3.84-2.91,8.13.32,11.57,1.57,1.67,3.67,2.73,5.21,4.44,3.23,3.6.27,7.3-1.96,10.4-3.12,4.33-4.33,9.94.68,13.36,1.34.92,2.73,1.58,2.47,3.48-.17,1.23,1.74,1.5,1.91.27.27-1.93-.41-3.25-1.92-4.42-1-.78-2.02-1.3-2.9-2.24Z"/><path class="cls-19" d="M171.41,226.86c-1.61-1.75-1.28-4.11-.51-6.11,1.84-4.83,8.31-9.27,4.48-14.93-2.72-4.02-8.71-5.4-7.49-11.27.91-4.38,4.37-7.83,4.97-12.34.55-4.18-3.15-6.41-6.38-8-2.3-1.14-4.61-2.23-4.99-5.04-.41-3.05,2.24-5.83,3.62-8.29,2.15-3.85,2.02-7.8-1.95-10.25-1.66-1.02-3.61-1.63-5-3.04-1.93-1.97-.32-7.19,2.48-7.65,1.22-.2.98-2.11-.24-1.91-3.84.63-5.82,6.04-4.65,9.38,1.36,3.9,7.12,3.62,8.73,7.31,1.18,2.71-1.41,5.86-2.74,7.99-1.31,2.11-2.24,4.18-2.14,6.7.19,4.72,5.67,5.97,8.88,8.07,4.93,3.23,1.07,8.64-.85,12.52-1.9,3.84-2.91,8.13.32,11.57,1.57,1.67,3.67,2.73,5.21,4.44,3.23,3.6.27,7.3-1.96,10.4-3.12,4.33-4.33,9.94.68,13.36,1.34.92,2.73,1.58,2.47,3.48-.17,1.23,1.74,1.5,1.91.27.27-1.93-.41-3.25-1.92-4.42-1-.78-2.02-1.3-2.9-2.24Z"/><path class="cls-19" d="M180.13,225.74c-1.61-1.74-1.28-4.1-.52-6.11,1.84-4.83,8.32-9.27,4.49-14.93-2.73-4.02-8.71-5.4-7.49-11.27.91-4.38,4.37-7.83,4.97-12.34.55-4.18-3.15-6.41-6.38-8-2.3-1.13-4.61-2.23-4.99-5.04-.41-3.05,2.25-5.83,3.62-8.29,2.15-3.85,2.02-7.8-1.95-10.25-1.66-1.02-3.61-1.63-5-3.04-1.93-1.97-.32-7.18,2.48-7.65,1.22-.2.98-2.11-.24-1.91-3.84.63-5.82,6.04-4.65,9.38,1.36,3.9,7.12,3.62,8.73,7.31,1.18,2.71-1.41,5.86-2.75,7.99-1.32,2.11-2.24,4.18-2.14,6.7.19,4.72,5.67,5.97,8.88,8.07,4.93,3.23,1.07,8.64-.85,12.52-1.9,3.84-2.91,8.13.32,11.57,1.57,1.67,3.67,2.72,5.21,4.44,3.23,3.6.27,7.3-1.96,10.4-3.12,4.33-4.33,9.94.68,13.36,1.34.92,2.73,1.58,2.47,3.48-.17,1.23,1.74,1.5,1.91.27.27-1.92-.41-3.24-1.92-4.42-1-.78-2.02-1.3-2.9-2.24Z"/><path class="cls-19" d="M188.85,224.62c-1.61-1.75-1.28-4.1-.51-6.11,1.84-4.83,8.31-9.27,4.49-14.93-2.73-4.02-8.71-5.4-7.49-11.27.91-4.38,4.37-7.83,4.97-12.34.55-4.18-3.15-6.41-6.38-8-2.3-1.13-4.61-2.23-4.99-5.04-.41-3.05,2.24-5.83,3.62-8.29,2.15-3.85,2.02-7.8-1.95-10.25-1.65-1.02-3.61-1.63-5-3.04-1.93-1.97-.32-7.18,2.48-7.65,1.22-.2.98-2.11-.24-1.91-3.84.63-5.82,6.04-4.65,9.38,1.36,3.9,7.12,3.62,8.73,7.31,1.18,2.71-1.41,5.86-2.74,7.99-1.32,2.1-2.24,4.18-2.14,6.7.19,4.72,5.67,5.97,8.88,8.07,4.93,3.23,1.07,8.64-.85,12.52-1.9,3.84-2.91,8.13.32,11.57,1.57,1.67,3.67,2.73,5.21,4.44,3.23,3.6.27,7.3-1.96,10.39-3.12,4.33-4.33,9.95.68,13.37,1.34.92,2.73,1.58,2.47,3.48-.17,1.23,1.74,1.5,1.91.27.27-1.92-.41-3.24-1.92-4.42-1-.78-2.02-1.3-2.9-2.24Z"/><path class="cls-19" d="M197.57,223.5c-1.61-1.75-1.28-4.1-.52-6.11,1.84-4.83,8.32-9.27,4.49-14.93-2.73-4.02-8.71-5.4-7.49-11.27.91-4.38,4.37-7.83,4.97-12.34.55-4.18-3.15-6.41-6.38-8-2.3-1.14-4.61-2.23-4.99-5.04-.41-3.05,2.24-5.83,3.62-8.29,2.15-3.85,2.02-7.8-1.95-10.25-1.66-1.02-3.61-1.63-5-3.04-1.93-1.97-.32-7.18,2.48-7.65,1.22-.2.98-2.11-.24-1.91-3.84.63-5.82,6.04-4.65,9.38,1.36,3.9,7.12,3.62,8.73,7.31,1.18,2.71-1.41,5.86-2.74,7.99-1.32,2.1-2.24,4.18-2.14,6.7.19,4.72,5.67,5.97,8.88,8.07,4.93,3.23,1.07,8.64-.85,12.52-1.9,3.84-2.91,8.13.32,11.57,1.57,1.67,3.67,2.73,5.21,4.44,3.23,3.59.27,7.3-1.96,10.39-3.12,4.33-4.33,9.95.68,13.37,1.34.92,2.73,1.58,2.47,3.48-.17,1.23,1.74,1.5,1.91.27.27-1.93-.41-3.25-1.92-4.42-1-.78-2.02-1.3-2.9-2.24Z"/><path class="cls-13" d="M130.52,140.64c-.07-3.61,2.54-7.36,6.29-7.77,2.26-.29,4.69.71,6.39,2.14,1.25,1.02,2.1,2.56,3.24,3.73.17-3.77,4.69-7.5,8.34-7.18,3.45.28,4.85,2.99,6.78,5.24-.42-4.28,4.23-8.49,8.35-8.17,3.58.26,5.15,2.76,6.32,5.76-.27-2.13,1.59-4.54,3.06-5.85,1.53-1.38,3.74-2.12,5.8-1.4,2.68.9,2.96,3.56,3.69,5.7l-58.27,7.81Z"/><path class="cls-18" d="M131.05,140.71c.11-3.54,2.19-6.68,5.83-7.31,4.24-.73,6.72,2.97,9.12,5.65.3.33.91.24.97-.25.37-3.42,3.35-6.05,6.63-6.68,3.53-.68,5.62,2.7,7.53,4.99.36.43.99.13.97-.4-.14-3.79,3-6.84,6.57-7.52,3.71-.71,5.87,2.44,7.07,5.39.24.6,1.05.3,1.04-.28-.07-3.25,3.04-6.29,6.05-6.88,3.74-.74,4.62,3.01,5.46,5.61.14-.25.29-.5.43-.75-19.42,2.6-38.85,5.21-58.27,7.81-.69.09-.56,1.17.14,1.08,19.42-2.6,38.85-5.21,58.27-7.81.37-.05.54-.41.43-.75-1.14-3.56-2.27-6.5-6.6-6.27-3.7.2-7.07,4.6-6.99,8.09.35-.09.69-.19,1.04-.28-1.59-3.9-4.32-6.78-8.86-5.92-3.94.75-6.99,4.68-6.85,8.61.32-.13.65-.27.97-.4-2.52-3.02-4.75-6.14-9.16-5.29-3.48.67-6.56,3.99-6.94,7.48.32-.08.65-.17.97-.25-3.05-3.4-5.74-6.82-10.86-5.94-3.73.64-5.93,4.64-6.03,8.11-.02.69,1.05.85,1.07.15Z"/><path class="cls-14" d="M190.45,139.04c-8.72,2.6-49.1,7.19-59.88,8.73l-.83-6.45c10.79-1.53,51.16-6.12,59.88-8.73l.83,6.45Z"/><path class="cls-18" d="M170.65,104.33c-.1-.29-.49-.54-.79-.46-1.87.48-3.86.65-5.77.91-3.43.48-6.87.93-10.3,1.39-3.48.46-6.95.93-10.42,1.43-2.1.3-4.27.53-6.32,1.1-.34.09-.47.49-.46.79.11,3.65.81,7.23,1.28,10.85.41,3.12.21,6.36,1.27,9.36.13.36.43.49.72.45.02,0,.05,0,.08,0,5.51-.25,11-.85,16.48-1.53,2.8-.35,5.6-.66,8.35-1.26,2.75-.6,5.46-1.38,8.23-1.9.4-.07.71-.42.65-.84-.46-3.62-.89-7.24-1.37-10.85-.41-3.08-.59-6.49-1.63-9.44ZM156.69,127.08c-5.42.68-10.85,1.29-16.31,1.56-.83-2.72-.66-5.69-1.01-8.48-.42-3.4-1.07-6.76-1.24-10.17,1.61-.38,3.72-.62,5.44-.87,3.47-.51,6.94-.97,10.42-1.43,3.43-.46,6.87-.91,10.3-1.39,1.7-.24,3.46-.4,5.15-.77.25.92.38,1.89.53,2.81.33,1.98.6,3.96.86,5.94.44,3.28.83,6.57,1.24,9.86-2.36.48-4.69,1.1-7.04,1.64-2.75.64-5.55.95-8.34,1.3Z"/><path class="cls-18" d="M190.58,132.47c-.09-.67-.74-.94-1.33-.77-3.7,1.08-7.6,1.6-11.39,2.2-5.93.94-11.87,1.75-17.82,2.54-10.13,1.35-20.3,2.49-30.42,3.92-.52.07-.9.55-.83,1.08.27,2.15.55,4.3.83,6.45.07.52.56.91,1.08.83,10.32-1.46,20.68-2.63,31.01-4,9.62-1.28,19.77-2.06,29.12-4.79.49-.14.64-.52.57-.9,0-.04.01-.07,0-.1-.28-2.15-.55-4.3-.83-6.45ZM160.87,142.89c-9.81,1.3-19.66,2.42-29.46,3.79-.19-1.51-.39-3.02-.58-4.54,10-1.4,20.04-2.54,30.06-3.87,9.22-1.23,18.91-2.02,27.93-4.48.19,1.51.39,3.03.58,4.54-3.49.95-7.14,1.45-10.7,2.01-5.92.94-11.87,1.75-17.82,2.54Z"/><path class="cls-11" d="M123.91,234.67c12.9.84,29.39-1.3,43.4-3.19,18.36-2.45,36.71-5.48,53.84-10.54l.4,4.89c-17.12,5.06-35.48,8.09-53.84,10.54-14,1.89-30.49,4.03-43.4,3.19l-.4-4.89Z"/><path class="cls-11" d="M125.11,243.98c12.9.84,29.39-1.3,43.39-3.19,18.36-2.45,36.72-5.48,53.84-10.54l.4,4.89c-17.12,5.06-35.48,8.09-53.84,10.54-14,1.88-30.49,4.02-43.4,3.19l-.4-4.89Z"/><path class="cls-11" d="M126.3,253.29c12.9.84,29.39-1.3,43.39-3.19,18.36-2.45,36.71-5.48,53.84-10.55l.4,4.89c-17.12,5.06-35.48,8.09-53.84,10.54-14,1.88-30.49,4.02-43.4,3.19l-.4-4.89Z"/><path class="cls-11" d="M127.5,262.6c12.9.84,29.39-1.3,43.4-3.19,18.36-2.45,36.71-5.48,53.84-10.54l.4,4.89c-17.12,5.06-35.48,8.09-53.84,10.54-14,1.88-30.49,4.03-43.4,3.19l-.4-4.89Z"/><path class="cls-18" d="M123.84,235.08c15.38.93,31.05-1.49,46.32-3.57,17.26-2.35,34.5-5.31,51.16-10.2-.22-.11-.44-.21-.65-.32.07.81.13,1.63.2,2.44.04.51.08,1.01.12,1.52.02.19.03.37.05.56.05.6.08,0-.54.18-5.53,1.62-11.15,2.99-16.79,4.22-10.98,2.39-22.11,4.13-33.25,5.66-10.09,1.39-20.21,2.74-30.38,3.42-4.99.33-9.98.45-14.95.19-.47-.02-.32.45-.38-.31-.05-.61-.1-1.22-.15-1.82-.07-.82-.13-1.63-.2-2.45-.04-.53-1-.41-.96.12.13,1.63.27,3.26.4,4.89.01.17.2.34.4.35,15.38.93,31.06-1.49,46.32-3.57,17.26-2.35,34.5-5.31,51.16-10.2.21-.06.31-.27.3-.44-.13-1.63-.27-3.26-.4-4.89-.02-.29-.37-.4-.65-.32-16.59,4.86-33.74,7.77-50.91,10.13-15.17,2.09-30.79,4.49-46.07,3.57-.61-.04-.77.78-.15.82Z"/><path class="cls-18" d="M125.03,244.39c15.38.93,31.06-1.49,46.32-3.57,17.26-2.35,34.5-5.31,51.16-10.2-.22-.11-.44-.21-.65-.32.07.81.13,1.63.2,2.44.04.51.08,1.01.12,1.52.02.19.03.37.05.56.05.6.08,0-.54.18-5.53,1.62-11.15,2.99-16.79,4.22-10.98,2.39-22.11,4.13-33.25,5.66-10.09,1.39-20.21,2.74-30.38,3.42-4.99.33-9.98.45-14.95.19-.47-.02-.32.45-.38-.31-.05-.61-.1-1.22-.15-1.83-.07-.81-.13-1.63-.2-2.44-.04-.53-1-.41-.96.12.13,1.63.27,3.26.4,4.89.01.18.2.34.4.35,15.38.93,31.05-1.49,46.32-3.57,17.26-2.35,34.5-5.31,51.16-10.2.21-.06.31-.27.3-.44-.13-1.63-.27-3.26-.4-4.89-.02-.29-.37-.4-.65-.32-16.59,4.87-33.74,7.77-50.91,10.14-15.17,2.09-30.79,4.49-46.07,3.56-.62-.04-.77.78-.15.82Z"/><path class="cls-18" d="M126.23,253.7c15.38.93,31.05-1.48,46.32-3.57,17.26-2.35,34.5-5.31,51.16-10.2-.22-.1-.44-.21-.65-.32.07.81.13,1.63.2,2.44.04.51.08,1.02.12,1.52.02.19.03.38.05.56.05.6.08,0-.54.18-5.53,1.62-11.15,2.99-16.79,4.22-10.98,2.39-22.11,4.13-33.25,5.66-10.09,1.39-20.21,2.74-30.38,3.42-4.99.33-9.98.45-14.95.19-.47-.02-.32.45-.38-.31-.05-.61-.1-1.22-.15-1.83-.07-.81-.13-1.63-.2-2.44-.04-.53-1-.41-.96.12.13,1.63.27,3.26.4,4.89.01.17.2.34.4.35,15.38.93,31.05-1.49,46.32-3.57,17.26-2.35,34.5-5.31,51.16-10.2.21-.06.31-.27.3-.44-.13-1.63-.27-3.26-.4-4.89-.02-.28-.37-.4-.65-.31-16.59,4.86-33.74,7.77-50.91,10.13-15.17,2.09-30.79,4.49-46.07,3.57-.62-.04-.77.78-.15.82Z"/><path class="cls-18" d="M127.42,263.01c15.38.93,31.05-1.49,46.32-3.57,17.26-2.35,34.5-5.3,51.16-10.19-.22-.11-.44-.21-.65-.32.07.81.13,1.63.2,2.44.04.51.08,1.02.12,1.52.02.19.03.37.05.56.05.6.08,0-.54.18-5.53,1.62-11.15,2.99-16.79,4.22-10.98,2.39-22.11,4.13-33.25,5.66-10.09,1.39-20.21,2.74-30.38,3.42-4.99.33-9.98.45-14.95.19-.47-.02-.32.45-.38-.31-.05-.61-.1-1.22-.15-1.83-.07-.81-.13-1.63-.2-2.44-.04-.53-1-.41-.96.12.13,1.63.27,3.26.4,4.89.01.18.2.34.4.35,15.38.93,31.05-1.49,46.32-3.57,17.26-2.35,34.5-5.3,51.16-10.2.21-.06.31-.27.3-.44-.13-1.63-.27-3.26-.4-4.89-.02-.29-.37-.4-.66-.32-16.59,4.87-33.74,7.77-50.91,10.14-15.17,2.08-30.79,4.49-46.07,3.56-.62-.04-.77.78-.15.82Z"/></g><path class="cls-18" d="M130.5,93.54c-.07-.12.01,1.74.35,5.07.32,3.35.84,8.26,1.62,14.49.73,6.24,1.8,13.79,2.98,22.47,1.21,8.67,2.57,18.45,4.05,29.11,1.47,10.67,2.93,22.24,4.44,34.49,1.44,12.26,2.96,25.18,4.54,38.55.81,6.68,1.62,13.48,2.58,20.34.46,3.43.96,6.88,1.52,10.33.28,1.73.57,3.45.89,5.18.17.86.33,1.73.56,2.54.05.19.13.42.18.51.1.09-.17-.13-.14-.08l.16.05.31.1c.42.13.84.28,1.26.44,3.32,1.27,6.69,2.16,10.2,2.52,3.49.46,7.03.18,10.53-.24.85-.11,1.75-.32,2.62-.48.85-.22,1.7-.41,2.54-.66,1.69-.51,3.35-1.1,4.95-1.84,3.16-1.47,6.25-3.39,8.46-5.95.27-.32.5-.65.69-.97l.11-.23.06-.11s0-.04,0-.06c0-.02,0-.04.02-.05.01-.01,0,.05,0-.06,0-.12-.02-.2-.03-.3l-.32-2.62-.7-5.33c-.48-3.55-.96-7.11-1.43-10.65-.94-7.09-1.87-14.15-2.79-21.16-1.83-14.02-3.63-27.81-5.37-41.16-.86-6.68-1.71-13.24-2.53-19.67-.81-6.43-1.6-12.72-2.37-18.84-1.52-12.24-2.97-23.82-4.2-34.52-.62-5.35-1.22-10.47-1.79-15.35-.3-2.43-.6-4.8-.88-7.1-.15-1.15-.31-2.29-.49-3.37-.02-.14-.05-.27-.07-.39l-.04-.18c-.02-.06.03.08.08.08.17.14,0,0,.02.01l-.08-.07-.16-.14c-.1-.09-.22-.19-.3-.22-.32-.19-.81-.4-1.29-.56-1.98-.6-4.1-.76-6.1-.85-2.02-.08-3.98-.05-5.86.04-3.77.17-7.22.55-10.32,1.03-6.2.92-10.99,2.19-14.12,3.38-1.56.6-2.7,1.2-3.4,1.68-.35.25-.59.45-.73.61-.15.15-.22.23-.22.23l.02-.03ZM130.24,93.39s.28-.4,1.01-.91c.72-.51,1.88-1.14,3.45-1.75,3.15-1.24,7.95-2.52,14.15-3.62,3.1-.53,6.56-1.02,10.35-1.36,1.9-.16,3.88-.27,5.95-.26,2.07.02,4.22.08,6.47.66.56.17,1.12.34,1.75.72.17.09.27.17.38.26l.16.13.08.07c.06.06-.02-.05.16.16.1.13.2.39.22.47l.06.23c.04.15.07.3.1.44.24,1.13.44,2.26.64,3.41.38,2.3.78,4.66,1.18,7.09.78,4.85,1.6,9.95,2.38,15.28,1.61,10.65,3.18,22.22,4.79,34.46.82,6.11,1.64,12.4,2.44,18.83.8,6.43,1.61,13,2.44,19.68,1.59,13.37,3.24,27.18,4.91,41.22.79,7.02,1.6,14.11,2.4,21.21.38,3.56.76,7.12,1.14,10.69l.55,5.36.26,2.73.02.37s0,.17-.02.27l-.06.27-.07.27-.09.19-.19.38c-.28.44-.58.84-.9,1.2-2.58,2.83-5.81,4.68-9.15,6.15-1.68.73-3.41,1.3-5.17,1.78-.88.24-1.78.42-2.67.62-.89.14-1.74.31-2.67.43-3.59.39-7.23.64-10.81.14-3.57-.39-7.11-1.36-10.37-2.65-.4-.16-.82-.31-1.24-.45l-.31-.11-.16-.05c-.08,0-.43-.3-.37-.31-.16-.3-.2-.5-.27-.73-.24-.89-.42-1.75-.59-2.62-.34-1.73-.64-3.47-.93-5.2-.55-3.46-1.1-6.91-1.65-10.33-1.05-6.85-2.1-13.62-3.12-20.27-1.99-13.32-3.93-26.2-5.55-38.43-1.61-12.24-3.04-23.82-4.19-34.53-1.17-10.71-2.1-20.54-2.98-29.25-.85-8.71-1.6-16.31-2.21-22.56-.62-6.25-1.1-11.17-1.43-14.52-.3-3.37-.41-5.11-.29-5.22l.02-.03Z"/></g></g></svg>