<?xml version="1.0" encoding="UTF-8"?><svg id="Layer_2" xmlns="http://www.w3.org/2000/svg" viewBox="0 0 35.17 149.8"><defs><style>.cls-1{fill:#f24848;}.cls-1,.cls-2,.cls-3{fill-rule:evenodd;stroke-width:0px;}.cls-2{fill:#f9ebba;}.cls-3{fill:#e8ce9b;}</style></defs><g id="Layer_1-2"><path class="cls-1" d="M7.15,57.42c.51-7.79,1.69-15.48,3.63-22.77,2.26-8.48,5.23-16.7,9.46-24.27,1.35-2.41,2.8-4.76,4.28-7.08.43-.66.86-1.32,1.31-1.96.26-.37.69-1.47.85-1.05.93,2.41.13,6.65.28,9.28.3,5.31,1.18,10.56,2.11,15.74.63,3.5,1.33,7,2.04,10.5-.14.04-.28.08-.42.12-.49.14-.96.28-1.43.45-.14.05-2.67,1.15-2.4,1.35.43.31,1.7.37,2.17.46.88.16,1.77.3,2.65.46,1.72,8.61,3.29,17.27,3.48,26.15.13,6.42-.47,12.71-1.68,18.85-1.36.27-2.74.51-4.09.79-.67.14-1.35.27-2.02.37-.31.04-1.21-.01-.93.1,1.97.8,4.32.8,6.6.89-2.56,11.51-7.24,22.47-13.19,32.69l-.13.37c-5.72-4.9-8.35-14.52-9.88-22.14-2.34-11.66-3.42-24.47-2.79-37.11.18-.03.36-.06.54-.1.14-.03,2.7-.57,2.68-.65-.12-.46-1.36-.82-1.78-.98-.43-.17-.87-.31-1.32-.45Z"/><path class="cls-1" d="M21.41,35.79c-1.71,12.36-1.85,23.26-1.86,34.54,0,14.54-.04,28.27,1.33,42.79.82,8.7,1.49,19.12,2.96,27.75.52,3.02.81,1.29-1.39,6-.39.83-.95,2.08-1.28,2.92-.11.27-.27-8.92-1.01-13.61-1.15-7.3-1.47-15.22-2.2-22.56-.77-7.72-.48-15.39-.88-23.13-.94-18.26,4.33-54.7,4.33-54.7Z"/><path class="cls-2" d="M.09,58.52c-.29-7.8.09-15.55,1.28-22.96,1.38-8.63,3.49-17.04,6.93-24.92,1.1-2.51,2.3-4.96,3.54-7.38.36-.69.72-1.38,1.11-2.06.22-.39.53-1.51.74-1.11,1.17,2.33.81,6.62,1.23,9.22.84,5.26,2.26,10.43,3.71,15.51.98,3.44,2.05,6.86,3.11,10.3-.14.05-.27.1-.4.15-.47.18-.93.35-1.38.56-.13.06-2.54,1.36-2.25,1.53.46.27,1.73.24,2.21.29.9.09,1.79.16,2.68.25,2.59,8.44,5.05,16.94,6.15,25.78.79,6.38.84,12.7.26,18.91-1.33.37-2.67.72-4,1.11-.65.19-1.31.38-1.98.53-.3.07-1.21.08-.91.18,2.04.65,4.39.46,6.66.37-1.36,11.67-4.9,22.94-9.78,33.59l-.1.38c-6.2-4.43-9.81-13.81-12.12-21.28C3.25,86,.86,73.33.19,60.7c.18-.04.35-.09.53-.14.14-.04,2.63-.78,2.6-.86-.16-.45-1.43-.71-1.88-.83-.45-.13-.9-.24-1.36-.35Z"/><path class="cls-3" d="M12.08,35.86c-.43,12.45.55,23.31,1.7,34.55,1.48,14.48,2.86,28.16,5.72,42.51,1.71,8.6,3.44,18.93,5.8,27.41.82,2.97.94,1.22-.77,6.08-.3.85-.73,2.14-.98,3.01-.08.28-1.18-8.86-2.4-13.48-1.89-7.18-3.03-15.04-4.51-22.3-1.56-7.63-2.06-15.29-3.25-22.97-2.81-18.11-1.31-54.82-1.31-54.82Z"/></g></svg>